<svg width="116" height="217" viewBox="0 0 116 217" fill="none" xmlns="http://www.w3.org/2000/svg">
<path d="M69.7662 74.2494L90.2043 95.1083L100.343 105.258C100.479 105.382 113.873 117.836 113.298 130.201C113.064 135.235 110.523 139.631 105.745 143.264C105.397 143.53 105.328 144.027 105.594 144.375C105.749 144.58 105.986 144.69 106.227 144.69C106.395 144.69 106.563 144.636 106.706 144.529C111.877 140.598 114.63 135.8 114.883 130.271C115.202 123.387 111.509 116.623 108.357 112.161C104.971 107.368 101.56 104.219 101.441 104.112L91.3313 93.9922L90.7666 93.4147V76.2183C90.7666 71.6177 88.9409 67.2071 85.6912 63.9539L22.0132 0.209961V19.2608C22.0132 23.8614 23.8389 28.272 27.0886 31.5251L69.7662 74.2469V74.2494Z" fill="url(#paint0_linear_720_915)"/>
<path d="M62.9751 14.0303L57.5307 19.4804C55.8946 21.1181 55.8946 23.7734 57.5307 25.4112L62.9751 30.8613C64.6111 32.499 67.2637 32.499 68.8998 30.8613L74.3442 25.4112C75.9803 23.7734 75.9802 21.1181 74.3442 19.4804L68.8998 14.0303C67.2637 12.3926 64.6112 12.3926 62.9751 14.0303Z" fill="url(#paint1_linear_720_915)"/>
<path d="M62.973 82.327L57.5287 87.7772C55.8927 89.415 55.8927 92.0703 57.5288 93.708L62.9733 99.158C64.6094 100.796 67.2619 100.796 68.898 99.1579L74.3423 93.7077C75.9783 92.0699 75.9783 89.4146 74.3422 87.7769L68.8977 82.3269C67.2616 80.6892 64.609 80.6893 62.973 82.327Z" fill="url(#paint2_linear_720_915)"/>
<path d="M114.211 155.789C114.048 155.385 113.583 155.187 113.179 155.353C112.772 155.516 112.578 155.979 112.741 156.386C115.204 162.481 115.852 180.64 106.181 195.002C97.2078 208.326 82.0886 215.084 61.2464 215.084C47.0571 215.084 34.1822 211.214 24.0167 203.891C15.1414 197.5 8.38388 188.464 4.98808 178.447C-0.367301 162.639 3.23297 147.005 14.1628 138.615C24.8736 130.395 36.3049 128.485 48.1427 132.939C57.0278 136.283 62.8238 142.155 62.8895 142.221L86.1781 165.534C87.5584 166.913 89.8003 166.913 91.1781 165.534C91.8451 164.866 92.2151 163.977 92.2151 163.031C92.2151 162.086 91.8475 161.196 91.1781 160.529L90.7643 160.115V143.352C90.7643 138.751 88.9386 134.341 85.6889 131.087L22.0109 67.3435V86.3943C22.0109 90.995 23.8366 95.4056 27.0863 98.6587L90.2604 161.898C90.4965 162.227 90.6256 162.617 90.6256 163.029C90.6256 163.55 90.4235 164.04 90.0535 164.411C89.2916 165.171 88.055 165.171 87.293 164.411L64.0117 141.105C63.7683 140.854 57.948 134.95 48.7513 131.475C40.2241 128.251 27.135 126.657 13.1964 137.355C1.71885 146.164 -2.0932 162.493 3.4837 178.956C6.98417 189.283 13.9462 198.596 23.0868 205.178C33.525 212.693 46.7211 216.668 61.2439 216.668C82.3442 216.668 98.3373 209.481 107.493 195.887C117.617 180.852 116.864 162.351 114.211 155.789Z" fill="url(#paint3_linear_720_915)"/>
<defs>
<linearGradient id="paint0_linear_720_915" x1="22.0132" y1="72.451" x2="114.902" y2="72.451" gradientUnits="userSpaceOnUse">
<stop stop-color="#FFD06A"/>
<stop offset="1" stop-color="#A37530"/>
</linearGradient>
<linearGradient id="paint1_linear_720_915" x1="56.3045" y1="22.4447" x2="75.5693" y2="22.4447" gradientUnits="userSpaceOnUse">
<stop stop-color="#FFD06A"/>
<stop offset="1" stop-color="#A37530"/>
</linearGradient>
<linearGradient id="paint2_linear_720_915" x1="56.3061" y1="90.7433" x2="75.5709" y2="90.7433" gradientUnits="userSpaceOnUse">
<stop stop-color="#FFD06A"/>
<stop offset="1" stop-color="#A37530"/>
</linearGradient>
<linearGradient id="paint3_linear_720_915" x1="0.954495" y1="142.007" x2="115.922" y2="142.007" gradientUnits="userSpaceOnUse">
<stop stop-color="#FFD06A"/>
<stop offset="1" stop-color="#A37530"/>
</linearGradient>
</defs>
</svg>
