<svg width="713" height="1039" viewBox="0 0 713 1039" fill="none" xmlns="http://www.w3.org/2000/svg">
<path d="M356.276 1038.36C159.936 1038.36 0.200195 878.625 0.200195 682.288V356.283C0.200195 159.942 159.936 0.206543 356.276 0.206543C552.617 0.206543 712.352 159.942 712.352 356.283V682.288C712.352 878.625 552.617 1038.36 356.276 1038.36ZM356.276 6.61709C163.469 6.61709 6.61074 163.475 6.61074 356.283V682.288C6.61074 875.092 163.469 1031.95 356.276 1031.95C549.084 1031.95 705.942 875.092 705.942 682.288V356.283C705.942 163.475 549.084 6.61709 356.276 6.61709Z" fill="url(#paint0_linear_720_1123)"/>
<path d="M156.872 518.192V403.798H168.996V469.193H197.336L225.507 433.847H239.849L207.238 474.142L239.677 518.192H225.507L197.164 480.287H168.992V518.192H156.872Z" fill="url(#paint1_linear_720_1123)"/>
<path d="M251.625 518.192V403.798H263.749V459.631H264.603C267.334 445.461 278.263 432.142 299.773 432.142C323.336 432.142 335.116 447.848 335.116 469.193V518.192H322.995V470.725C322.995 451.433 313.947 443.24 294.996 443.24C272.46 443.24 263.752 457.582 263.752 478.582V518.192H251.628H251.625Z" fill="url(#paint2_linear_720_1123)"/>
<path d="M437.37 471.58C437.37 446.484 419.809 432.157 395.047 432.157C372.953 432.157 357.558 444.255 352.59 462.516L364.253 460.684C368.153 449.021 377.917 442.221 394.879 442.221C414.672 442.221 425.938 451.617 425.938 469.347V471.913H367.618V471.947L350.99 471.913C350.889 473.247 350.821 474.611 350.821 476.012C350.821 502.838 368.052 519.9 395.212 519.9C418.771 519.9 436.167 507.769 436.167 490.208V489.009H424.069V490.208C424.069 502.471 414.837 509.837 395.043 509.837C372.683 509.837 362.949 498.406 362.252 479.444H436.534C437.032 477.211 437.366 474.644 437.366 471.58H437.37Z" fill="url(#paint3_linear_720_1123)"/>
<path d="M453.424 423.094V403.798H465.549V423.094H453.424ZM453.424 518.195V433.85H465.549V518.195H453.424Z" fill="url(#paint4_linear_720_1123)"/>
<path d="M485.859 518.191V433.846H496.784V456.9H497.639C500.202 443.408 509.763 432.142 527.35 432.142C546.81 432.142 555.349 446.484 555.349 462.19V470.556H543.225V464.067C543.225 449.725 537.248 442.73 522.565 442.73C505.492 442.73 497.98 453.486 497.98 472.437V518.195H485.855L485.859 518.191Z" fill="url(#paint5_linear_720_1123)"/>
<path d="M155.493 393.836V382.577L207.414 333.016L226.293 316.314V315.403L207.414 315.763H158.213V304.145H243.723V315.587L188.351 367.872L172.191 381.851V382.753L188.351 382.394H246.447V393.829H155.489L155.493 393.836Z" fill="url(#paint6_linear_720_1123)"/>
<path d="M290.193 358.092L328.877 353.705L341.391 352.202V337.737C341.391 317.947 329.769 302.342 302.545 302.342C274.955 302.342 259.35 317.782 259.35 336.639V337.369H272.231V336.639C272.231 320.873 282.388 313.964 301.65 313.964C321.238 313.964 328.877 320.873 328.877 338.306V345.174L286.21 349.928C269.507 351.715 257.319 358.096 257.319 372.764C257.319 387.313 269.305 395.641 286.941 395.641C307.787 395.641 323.594 386.215 328.877 369.677H329.773V393.854H341.395V361.914L326.846 366.058C321.725 379.549 307.221 385.683 289.829 385.683C276.218 385.683 270.242 380.969 270.242 371.865C270.242 362.6 276.742 359.351 290.193 358.089V358.092Z" fill="url(#paint7_linear_720_1123)"/>
<path d="M356.64 348.996C356.64 321.761 372.616 302.338 400.21 302.338C421.45 302.338 434.702 313.773 438.7 329.206H439.606V272.196H452.499V393.836H440.697V367.332H439.97C435.612 385.305 421.09 395.649 401.3 395.649C372.62 395.649 356.64 376.223 356.64 348.996ZM404.568 383.855C425.628 383.855 439.606 371.693 439.606 350.449V348.816C439.606 326.669 426.354 314.32 404.204 314.32C383.691 314.32 369.712 323.035 369.712 348.999C369.712 374.964 383.511 383.858 404.571 383.858L404.568 383.855Z" fill="url(#paint8_linear_720_1123)"/>
<path d="M502.288 358.092L540.973 353.705L553.487 352.202V337.737C553.487 317.947 541.864 302.342 514.641 302.342C487.051 302.342 471.446 317.782 471.446 336.639V337.369H484.327V336.639C484.327 320.873 494.484 313.964 513.746 313.964C533.333 313.964 540.973 320.873 540.973 338.306V345.174L498.306 349.928C481.603 351.715 469.415 358.096 469.415 372.764C469.415 387.313 481.401 395.641 499.036 395.641C519.883 395.641 535.69 386.215 540.973 369.677H541.868V393.854H553.49V361.914L538.942 366.058C533.82 379.549 519.317 385.683 501.925 385.683C488.313 385.683 482.337 380.969 482.337 371.865C482.337 362.6 488.838 359.351 502.288 358.089V358.092Z" fill="url(#paint9_linear_720_1123)"/>
<path d="M89.7903 835.404L112.117 822.129L113.346 824.197L102.465 841.852L99.8277 845.992L99.9063 846.123L104.799 845.786L125.53 844.692L126.74 846.723L104.414 859.997L103.522 858.498L120.715 848.274L123.6 846.603L123.522 846.471L119.805 846.741L98.9697 847.809L97.9017 846.007L108.79 828.21L110.802 825.074L110.723 824.943L107.876 826.678L90.6782 836.902L89.7903 835.404Z" fill="url(#paint10_linear_720_1123)"/>
<path d="M116.774 859.023L128.992 849.877L130.037 851.271L117.853 860.394C112.675 864.272 112.315 868.704 116.077 873.729C119.861 878.783 124.215 879.686 129.393 875.808L141.577 866.685L142.6 868.049L130.382 877.198C124.616 881.514 118.775 880.181 114.713 874.752C110.674 869.356 111.008 863.343 116.774 859.023Z" fill="url(#paint11_linear_720_1123)"/>
<path d="M131.179 882.237L131.352 882.084L132.521 883.38L132.172 883.691C129.059 886.49 129.141 890.12 133.394 894.849C136.998 898.854 140.104 899.817 142.641 897.535C145.091 895.328 144.637 893.028 142.528 889.292L139.984 884.954C137.897 881.353 136.694 877.64 139.924 874.737C142.461 872.455 146.942 872.391 151.636 877.61C156.38 882.889 155.54 887.812 152.168 890.847L151.996 891.001L150.827 889.705L151.172 889.394C154.289 886.591 154.229 883.047 150.34 878.719C146.657 874.624 143.63 873.751 141.236 875.902C138.699 878.184 139.242 880.357 141.453 884.261L143.971 888.566C146.159 892.335 147.069 895.898 143.955 898.7C141.303 901.087 136.721 901.035 132.157 895.958C127.073 890.308 127.751 885.317 131.183 882.23L131.179 882.237Z" fill="url(#paint12_linear_720_1123)"/>
<path d="M142.78 906.789L160.681 887.962L161.944 889.165L145.14 906.838L157.336 918.434L156.242 919.584L142.78 906.789Z" fill="url(#paint13_linear_720_1123)"/>
<path d="M159.433 922.146L176.342 902.428L177.668 903.563L160.759 923.282L159.433 922.146Z" fill="url(#paint14_linear_720_1123)"/>
<path d="M165.383 927.594L180.872 906.751L182.802 908.183L179.557 928.662L178.718 933.495L178.841 933.585L183.225 931.39L201.928 922.401L203.824 923.81L188.335 944.653L186.938 943.611L198.867 927.56L200.887 924.908L200.763 924.818L197.436 926.5L178.624 935.5L176.946 934.252L180.141 913.645L180.793 909.977L180.67 909.887L178.714 912.585L166.784 928.636L165.383 927.598V927.594Z" fill="url(#paint15_linear_720_1123)"/>
<path d="M192.243 947.156L215.634 930.813L217.672 932.016L214.705 960.393L213.105 959.445L213.989 950.389L201.306 942.915L193.847 948.096L192.243 947.152V947.156ZM202.745 941.926L214.161 948.651L215.394 936.336L215.802 932.889L215.671 932.81L212.925 934.878L202.749 941.922L202.745 941.926Z" fill="url(#paint16_linear_720_1123)"/>
<path d="M218.754 962.413L229.788 938.898L231.365 939.64L226.228 950.592L242.305 958.134L247.442 947.182L248.986 947.905L237.956 971.423L236.412 970.696L241.646 959.539L225.573 951.997L220.339 963.154L218.754 962.413Z" fill="url(#paint17_linear_720_1123)"/>
<path d="M258.975 979.43L266.637 954.627L284.445 960.131L283.977 961.648L267.836 956.661L264.498 967.474L280.084 972.289L279.627 973.769L264.041 968.954L260.646 979.951L258.979 979.437L258.975 979.43Z" fill="url(#paint18_linear_720_1123)"/>
<path d="M279.93 985.889L296.981 962.978L299.293 963.473L305.445 991.363L303.628 990.973L301.608 982.094L287.202 979.006L281.755 986.282L279.934 985.893L279.93 985.889ZM288.251 977.601L301.215 980.385L298.495 968.302L297.798 964.9L297.644 964.866L295.689 967.699L288.251 977.601Z" fill="url(#paint19_linear_720_1123)"/>
<path d="M309.461 983.768L309.491 983.536L311.222 983.753L311.162 984.214C310.645 988.365 313.084 991.051 319.39 991.834C324.732 992.498 327.707 991.186 328.127 987.807C328.535 984.54 326.681 983.097 322.646 981.658L317.887 980.051C313.953 978.702 310.615 976.687 311.147 972.378C311.567 968.995 314.905 966.016 321.866 966.878C328.902 967.751 331.495 972.022 330.937 976.518L330.907 976.747L329.176 976.533L329.232 976.068C329.749 971.917 327.385 969.279 321.615 968.564C316.156 967.886 313.298 969.208 312.9 972.4C312.481 975.784 314.313 977.065 318.539 978.564L323.26 980.167C327.381 981.576 330.401 983.674 329.88 987.825C329.442 991.362 325.95 994.326 319.184 993.487C311.645 992.55 308.895 988.343 309.461 983.768Z" fill="url(#paint20_linear_720_1123)"/>
<path d="M334.497 994.757L335.456 968.796L337.202 968.864L336.756 980.954L354.504 981.606L354.95 969.516L356.654 969.579L355.695 995.54L353.991 995.476L354.444 983.154L336.7 982.502L336.243 994.821L334.5 994.757H334.497Z" fill="url(#paint21_linear_720_1123)"/>
<path d="M361.724 995.308L361.162 969.351L362.908 969.313L363.466 995.274L361.724 995.308Z" fill="url(#paint22_linear_720_1123)"/>
<path d="M367.482 982.434C366.812 974.356 371.787 968.65 379.168 968.039C386.59 967.425 392.398 972.236 393.068 980.314C393.739 988.391 388.801 994.094 381.383 994.708C374.002 995.319 368.149 990.512 367.482 982.434ZM391.289 980.46C390.67 973 386.145 969.133 379.307 969.703C372.465 970.272 368.64 974.828 369.258 982.288C369.876 989.748 374.395 993.573 381.236 993.007C388.078 992.438 391.907 987.919 391.289 980.46Z" fill="url(#paint23_linear_720_1123)"/>
<path d="M399.745 992.445L395.087 966.882L396.995 966.533L415.323 982.981L419.01 986.327L419.16 986.301L418.422 982.453L414.926 963.262L416.605 962.955L421.262 988.519L419.392 988.86L401.299 972.644L397.38 969.1L397.231 969.13L398.021 973.243L401.46 992.13L399.745 992.445Z" fill="url(#paint24_linear_720_1123)"/>
<path d="M430.656 972.936C428.246 965.2 431.783 958.572 438.782 956.391C444.743 954.533 450.603 956.526 452.285 961.933L452.412 962.341L450.674 962.884L450.546 962.476C449.126 957.924 444.979 956.211 439.277 957.987C432.836 959.995 430.131 965.263 432.356 972.408C434.582 979.553 439.79 982.318 446.23 980.31C451.933 978.53 454.387 974.802 452.956 970.213L452.839 969.842L454.578 969.298L454.694 969.669C456.391 975.11 452.735 980.066 446.736 981.936C439.741 984.117 433.061 980.673 430.652 972.936H430.656Z" fill="url(#paint25_linear_720_1123)"/>
<path d="M456.631 964.735C453.48 957.276 456.425 950.307 463.24 947.43C470.093 944.533 477.103 947.291 480.258 954.75C483.412 962.21 480.501 969.16 473.649 972.056C466.833 974.938 459.786 972.195 456.631 964.735ZM478.617 955.44C475.705 948.554 470.209 946.291 463.889 948.962C457.572 951.63 455.361 957.148 458.272 964.038C461.183 970.925 466.669 973.15 472.982 970.479C479.299 967.811 481.524 962.326 478.613 955.436L478.617 955.44Z" fill="url(#paint26_linear_720_1123)"/>
<path d="M490.239 964.132L478.021 941.21L479.561 940.389L491.033 961.91L505.881 953.993L506.631 955.395L490.243 964.132H490.239Z" fill="url(#paint27_linear_720_1123)"/>
<path d="M510.59 953.016L496.653 931.087L498.125 930.15L511.209 950.738L525.412 941.708L526.266 943.05L510.59 953.016Z" fill="url(#paint28_linear_720_1123)"/>
<path d="M530.076 940.348L514.457 919.607L529.627 908.179L530.582 909.449L516.806 919.828L523.149 928.246L536.461 918.22L537.394 919.457L524.082 929.483L530.515 938.025L544.291 927.647L545.251 928.917L530.08 940.341L530.076 940.348Z" fill="url(#paint29_linear_720_1123)"/>
<path d="M540.129 916.44C534.711 910.412 535.164 902.911 540.612 898.014C545.254 893.837 551.413 893.203 555.198 897.415L555.482 897.729L554.126 898.951L553.841 898.632C550.653 895.088 546.168 895.26 541.728 899.254C536.712 903.765 536.453 909.681 541.455 915.249C546.46 920.813 552.346 921.15 557.363 916.639C561.803 912.649 562.477 908.235 559.263 904.661L559.004 904.372L560.36 903.155L560.619 903.443C564.429 907.684 563.178 913.713 558.506 917.913C553.054 922.813 545.55 922.465 540.129 916.44Z" fill="url(#paint30_linear_720_1123)"/>
<path d="M576.52 899.629L558.66 883.039L551.144 891.131L549.979 890.049L566.145 872.642L567.311 873.724L559.821 881.787L577.681 898.377L576.52 899.625V899.629Z" fill="url(#paint31_linear_720_1123)"/>
<path d="M587.502 887.194L567.521 870.581L568.637 869.24L588.618 885.853L587.502 887.194Z" fill="url(#paint32_linear_720_1123)"/>
<path d="M581.53 874.432C574.988 869.652 573.932 862.158 578.304 856.182C582.695 850.173 590.132 848.933 596.674 853.713C603.216 858.494 604.295 865.954 599.904 871.963C595.535 877.943 588.072 879.213 581.53 874.432ZM595.621 855.148C589.581 850.735 583.699 851.623 579.649 857.164C575.603 862.705 576.543 868.58 582.583 872.994C588.622 877.407 594.475 876.501 598.525 870.955C602.571 865.414 601.661 859.566 595.621 855.148Z" fill="url(#paint33_linear_720_1123)"/>
<path d="M610.237 856.546L587.876 843.332L588.862 841.664L613.287 838.581L618.228 837.989L618.307 837.858L614.916 835.898L598.127 825.981L598.997 824.512L621.357 837.727L620.39 839.36L596.299 842.414L591.057 843.055L590.979 843.189L594.602 845.284L611.121 855.044L610.237 856.546Z" fill="url(#paint34_linear_720_1123)"/>
<path d="M109.131 225.648L86.8687 212.272L88.109 210.211L108.809 211.437L113.702 211.8L113.781 211.669L111.166 207.518L100.39 189.781L101.608 187.754L123.871 201.13L122.972 202.624L105.827 192.321L102.991 190.575L102.912 190.706L104.909 193.854L115.714 211.695L114.635 213.49L93.8113 212.325L90.0946 212.036L90.016 212.167L92.8934 213.853L110.038 224.153L109.139 225.648H109.131Z" fill="url(#paint35_linear_720_1123)"/>
<path d="M117.869 191.174L105.692 181.95L106.745 180.56L118.891 189.762C124.054 193.669 128.415 192.793 132.211 187.787C136.025 182.748 135.691 178.308 130.528 174.4L118.382 165.198L119.412 163.838L131.589 173.063C137.336 177.416 137.666 183.407 133.567 188.814C129.491 194.194 123.616 195.528 117.869 191.174Z" fill="url(#paint36_linear_720_1123)"/>
<path d="M136.115 171.778L135.943 171.624L137.115 170.332L137.46 170.642C140.566 173.452 144.167 173.003 148.434 168.29C152.05 164.292 152.69 161.107 150.161 158.814C147.718 156.604 145.474 157.286 141.971 159.766L137.917 162.741C134.553 165.187 130.978 166.761 127.76 163.846C125.231 161.557 124.71 157.106 129.42 151.909C134.182 146.649 139.169 146.978 142.529 150.021L142.702 150.178L141.529 151.471L141.184 151.16C138.078 148.35 134.56 148.769 130.656 153.082C126.962 157.162 126.4 160.264 128.787 162.422C131.316 164.711 133.421 163.951 137.078 161.355L141.106 158.41C144.631 155.847 148.078 154.58 151.184 157.39C153.829 159.785 154.245 164.348 149.667 169.406C144.564 175.041 139.536 174.876 136.115 171.778Z" fill="url(#paint37_linear_720_1123)"/>
<path d="M158.486 159.414L140.682 140.523L141.952 139.328L158.666 157.064L170.903 145.532L171.993 146.686L158.486 159.414Z" fill="url(#paint38_linear_720_1123)"/>
<path d="M174.384 144.843L157.539 125.094L158.865 123.963L175.71 143.712L174.384 144.843Z" fill="url(#paint39_linear_720_1123)"/>
<path d="M179.145 140.381L163.72 119.478L165.653 118.05L184.304 127.132L188.684 129.347L188.808 129.253L187.987 124.416L184.844 103.892L186.747 102.487L202.172 123.389L200.767 124.427L188.89 108.324L186.942 105.619L186.818 105.709L187.459 109.384L190.584 130.014L188.898 131.258L170.108 122.183L166.789 120.49L166.661 120.579L168.673 123.24L180.554 139.343L179.149 140.377L179.145 140.381Z" fill="url(#paint40_linear_720_1123)"/>
<path d="M204.065 122.243L201.195 93.8282L203.237 92.6367L226.59 109.073L224.983 110.01L217.501 104.821L204.781 112.258L205.669 121.306L204.065 122.243ZM204.616 110.512L216.062 103.821L205.901 96.7356L203.091 94.6937L202.956 94.7723L203.424 98.1818L204.616 110.512Z" fill="url(#paint41_linear_720_1123)"/>
<path d="M228.647 108.114L217.68 84.5626L219.261 83.8283L224.368 94.7948L240.468 87.2977L235.361 76.3312L236.908 75.6118L247.875 99.1597L246.327 99.879L241.123 88.7027L225.024 96.196L230.228 107.372L228.647 108.114Z" fill="url(#paint42_linear_720_1123)"/>
<path d="M266.005 92.3149L258.406 67.4783L276.237 62.0269L276.701 63.5443L260.538 68.4861L263.847 79.3102L279.455 74.537L279.908 76.0207L264.304 80.7939L267.672 91.8054L266.005 92.3149Z" fill="url(#paint43_linear_720_1123)"/>
<path d="M285.042 86.4023L291.224 58.5308L293.535 58.04L310.553 80.9622L308.736 81.3518L303.262 74.0758L288.856 77.1481L286.862 86.0164L285.042 86.4023ZM289.245 75.4433L302.209 72.6783L294.787 62.7683L292.76 59.9508L292.606 59.9808L291.981 63.3678L289.245 75.4433Z" fill="url(#paint44_linear_720_1123)"/>
<path d="M310.631 72.9065L310.601 72.678L312.332 72.4682L312.388 72.9328C312.894 77.0916 315.914 79.1073 322.227 78.3355C327.578 77.6873 330.148 75.6903 329.739 72.3033C329.338 69.0325 327.192 68.0808 322.924 67.6612L317.911 67.2565C313.767 66.9006 310.032 65.7504 309.507 61.4417C309.095 58.0547 311.613 54.3455 318.582 53.4988C325.625 52.6445 329.177 56.1589 329.728 60.6587L329.754 60.8909L328.023 61.1007L327.967 60.6399C327.461 56.4811 324.524 54.4954 318.75 55.196C313.284 55.8629 310.83 57.8411 311.216 61.0371C311.628 64.424 313.719 65.2221 318.185 65.6605L323.156 66.0688C327.499 66.4398 330.938 67.7399 331.444 71.8987C331.875 75.4393 329.204 79.1634 322.426 79.9877C314.88 80.9057 311.186 77.4849 310.631 72.9065Z" fill="url(#paint45_linear_720_1123)"/>
<path d="M335.532 78.1298L334.606 52.1729L336.349 52.1092L336.78 64.1997L354.528 63.5665L354.097 51.4797L355.802 51.416L356.727 77.3767L355.022 77.4366L354.584 65.1176L336.836 65.7471L337.274 78.0661L335.532 78.1298Z" fill="url(#paint46_linear_720_1123)"/>
<path d="M361.609 77.6125L362.205 51.6519L363.947 51.6931L363.351 77.65L361.609 77.6125Z" fill="url(#paint47_linear_720_1123)"/>
<path d="M368.041 64.5219C368.712 56.4441 374.557 51.6371 381.941 52.2478C389.364 52.8623 394.298 58.5647 393.627 66.6388C392.956 74.7166 387.149 79.5274 379.731 78.9129C372.35 78.3022 367.371 72.596 368.041 64.5219ZM391.848 66.4927C392.466 59.0331 388.64 54.4771 381.799 53.9113C374.958 53.3419 370.435 57.2084 369.817 64.668C369.199 72.1277 373.028 76.6424 379.869 77.2119C386.711 77.7814 391.229 73.9523 391.848 66.4927Z" fill="url(#paint48_linear_720_1123)"/>
<path d="M395.943 80.1379L400.6 54.5781L402.508 54.9266L413.86 76.7847L416.127 81.217L416.28 81.2469L416.943 77.3841L420.439 58.1937L422.117 58.5009L417.46 84.0644L415.591 83.7235L404.381 62.1689L401.964 57.4706L401.814 57.4406L401.103 61.5657L397.663 80.4526L395.943 80.1379Z" fill="url(#paint49_linear_720_1123)"/>
<path d="M431.915 74.1958C434.324 66.4552 441.004 63.0157 447.999 65.1963C453.96 67.0546 457.651 72.0227 455.969 77.4292L455.841 77.8375L454.103 77.2943L454.23 76.8859C455.65 72.3337 453.207 68.5683 447.509 66.7886C441.068 64.7804 435.849 67.5792 433.624 74.7278C431.398 81.8765 434.114 87.1031 440.555 89.115C446.257 90.891 450.394 89.2124 451.821 84.6228L451.937 84.2518L453.676 84.7951L453.559 85.166C451.862 90.61 446.04 92.6107 440.045 90.7448C433.046 88.5643 429.51 81.9364 431.919 74.1995L431.915 74.1958Z" fill="url(#paint50_linear_720_1123)"/>
<path d="M458.178 82.5242C461.333 75.0646 468.381 72.3258 475.196 75.2032C482.049 78.0994 484.956 85.0495 481.805 92.5091C478.65 99.9687 471.64 102.726 464.788 99.8301C457.973 96.9489 455.028 89.9839 458.178 82.5242ZM480.164 91.816C483.075 84.9296 480.865 79.4108 474.548 76.7394C468.231 74.0718 462.731 76.331 459.82 83.2211C456.909 90.1075 459.134 95.5926 465.451 98.264C471.768 100.932 477.253 98.7099 480.16 91.8197L480.164 91.816Z" fill="url(#paint51_linear_720_1123)"/>
<path d="M479.85 106.155L492.038 83.2329L493.577 84.0534L482.135 105.571L496.983 113.469L496.238 114.87L479.85 106.155Z" fill="url(#paint52_linear_720_1123)"/>
<path d="M498.67 116.36L512.574 94.4312L514.046 95.3641L500.993 115.952L515.196 124.959L514.346 126.3L498.67 116.36Z" fill="url(#paint53_linear_720_1123)"/>
<path d="M516.676 127.968L532.266 107.192L547.458 118.594L546.507 119.864L532.708 109.508L526.38 117.942L539.714 127.945L538.785 129.185L525.45 119.182L519.029 127.739L532.828 138.095L531.872 139.365L516.676 127.968Z" fill="url(#paint54_linear_720_1123)"/>
<path d="M542.546 131.227C547.956 125.192 555.461 124.836 560.92 129.725C565.573 133.891 566.866 139.942 563.085 144.161L562.801 144.479L561.441 143.262L561.725 142.947C564.91 139.395 564.251 134.952 559.803 130.969C554.775 126.465 548.867 126.844 543.869 132.419C538.875 137.994 539.171 143.88 544.199 148.387C548.646 152.374 553.108 152.569 556.315 148.983L556.574 148.694L557.934 149.908L557.675 150.197C553.869 154.442 547.739 153.846 543.06 149.654C537.601 144.76 537.132 137.26 542.543 131.224L542.546 131.227Z" fill="url(#paint55_linear_720_1123)"/>
<path d="M560.152 165.877L577.983 149.26L570.452 141.182L571.613 140.1L587.81 157.473L586.649 158.556L579.144 150.508L561.314 167.128L560.152 165.88V165.877Z" fill="url(#paint56_linear_720_1123)"/>
<path d="M570.373 177.391L590.324 160.744L591.444 162.082L571.493 178.732L570.373 177.391Z" fill="url(#paint57_linear_720_1123)"/>
<path d="M584.468 173.632C590.998 168.829 598.465 170.084 602.853 176.052C607.262 182.055 606.206 189.522 599.676 194.321C593.145 199.121 585.7 197.903 581.291 191.901C576.903 185.932 577.934 178.431 584.468 173.632ZM598.619 192.882C604.651 188.45 605.577 182.572 601.511 177.038C597.446 171.508 591.556 170.635 585.524 175.071C579.492 179.503 578.6 185.359 582.666 190.893C586.731 196.423 592.587 197.318 598.619 192.882Z" fill="url(#paint58_linear_720_1123)"/>
<path d="M591.055 204.966L613.381 191.691L614.371 193.359L605.352 216.27L603.498 220.889L603.576 221.024L606.922 218.99L623.681 209.02L624.554 210.488L602.227 223.763L601.257 222.133L610.144 199.529L612.096 194.625L612.017 194.49L608.44 196.663L591.943 206.472L591.051 204.973L591.055 204.966Z" fill="url(#paint59_linear_720_1123)"/>
<path d="M117.688 594.724C117.688 594.724 327.569 567.572 359.202 667.17C359.202 667.17 373.743 705.884 337.603 765.846C301.462 825.808 357.063 879.711 420.7 881.041C420.7 881.041 340.529 849.76 387.782 772.073C421.674 716.349 476.02 548.292 117.692 594.724H117.688Z" fill="url(#paint60_linear_720_1123)"/>
<path d="M472.303 865.852C487.746 865.852 500.265 853.333 500.265 837.891C500.265 822.448 487.746 809.929 472.303 809.929C456.861 809.929 444.342 822.448 444.342 837.891C444.342 853.333 456.861 865.852 472.303 865.852Z" fill="url(#paint61_linear_720_1123)"/>
<defs>
<linearGradient id="paint0_linear_720_1123" x1="208.287" y1="-25.5818" x2="513.52" y2="1098.22" gradientUnits="userSpaceOnUse">
<stop stop-color="#FFD06A"/>
<stop offset="1" stop-color="#A37530"/>
</linearGradient>
<linearGradient id="paint1_linear_720_1123" x1="72.1633" y1="11.3907" x2="377.393" y2="1135.2" gradientUnits="userSpaceOnUse">
<stop stop-color="#FFD06A"/>
<stop offset="1" stop-color="#A37530"/>
</linearGradient>
<linearGradient id="paint2_linear_720_1123" x1="157.043" y1="-11.6625" x2="462.273" y2="1112.14" gradientUnits="userSpaceOnUse">
<stop stop-color="#FFD06A"/>
<stop offset="1" stop-color="#A37530"/>
</linearGradient>
<linearGradient id="paint3_linear_720_1123" x1="254.88" y1="-38.2334" x2="560.11" y2="1085.57" gradientUnits="userSpaceOnUse">
<stop stop-color="#FFD06A"/>
<stop offset="1" stop-color="#A37530"/>
</linearGradient>
<linearGradient id="paint4_linear_720_1123" x1="319.15" y1="-55.6895" x2="624.378" y2="1068.11" gradientUnits="userSpaceOnUse">
<stop stop-color="#FFD06A"/>
<stop offset="1" stop-color="#A37530"/>
</linearGradient>
<linearGradient id="paint5_linear_720_1123" x1="369.368" y1="-69.3317" x2="674.598" y2="1054.47" gradientUnits="userSpaceOnUse">
<stop stop-color="#FFD06A"/>
<stop offset="1" stop-color="#A37530"/>
</linearGradient>
<linearGradient id="paint6_linear_720_1123" x1="105.456" y1="2.35022" x2="410.689" y2="1126.16" gradientUnits="userSpaceOnUse">
<stop stop-color="#FFD06A"/>
<stop offset="1" stop-color="#A37530"/>
</linearGradient>
<linearGradient id="paint7_linear_720_1123" x1="197.125" y1="-22.5471" x2="502.356" y2="1101.26" gradientUnits="userSpaceOnUse">
<stop stop-color="#FFD06A"/>
<stop offset="1" stop-color="#A37530"/>
</linearGradient>
<linearGradient id="paint8_linear_720_1123" x1="304.992" y1="-51.8458" x2="610.223" y2="1071.96" gradientUnits="userSpaceOnUse">
<stop stop-color="#FFD06A"/>
<stop offset="1" stop-color="#A37530"/>
</linearGradient>
<linearGradient id="paint9_linear_720_1123" x1="394.65" y1="-76.1958" x2="699.88" y2="1047.61" gradientUnits="userSpaceOnUse">
<stop stop-color="#FFD06A"/>
<stop offset="1" stop-color="#A37530"/>
</linearGradient>
<linearGradient id="paint10_linear_720_1123" x1="-104.077" y1="59.2588" x2="201.157" y2="1183.06" gradientUnits="userSpaceOnUse">
<stop stop-color="#FFD06A"/>
<stop offset="1" stop-color="#A37530"/>
</linearGradient>
<linearGradient id="paint11_linear_720_1123" x1="-93.2677" y1="56.3233" x2="211.968" y2="1180.13" gradientUnits="userSpaceOnUse">
<stop stop-color="#FFD06A"/>
<stop offset="1" stop-color="#A37530"/>
</linearGradient>
<linearGradient id="paint12_linear_720_1123" x1="-84.4199" y1="53.9197" x2="220.809" y2="1177.73" gradientUnits="userSpaceOnUse">
<stop stop-color="#FFD06A"/>
<stop offset="1" stop-color="#A37530"/>
</linearGradient>
<linearGradient id="paint13_linear_720_1123" x1="-77.4042" y1="52.0161" x2="227.827" y2="1175.82" gradientUnits="userSpaceOnUse">
<stop stop-color="#FFD06A"/>
<stop offset="1" stop-color="#A37530"/>
</linearGradient>
<linearGradient id="paint14_linear_720_1123" x1="-66.0905" y1="48.942" x2="239.14" y2="1172.75" gradientUnits="userSpaceOnUse">
<stop stop-color="#FFD06A"/>
<stop offset="1" stop-color="#A37530"/>
</linearGradient>
<linearGradient id="paint15_linear_720_1123" x1="-54.3879" y1="45.7629" x2="250.843" y2="1169.57" gradientUnits="userSpaceOnUse">
<stop stop-color="#FFD06A"/>
<stop offset="1" stop-color="#A37530"/>
</linearGradient>
<linearGradient id="paint16_linear_720_1123" x1="-38.9506" y1="41.5717" x2="266.277" y2="1165.38" gradientUnits="userSpaceOnUse">
<stop stop-color="#FFD06A"/>
<stop offset="1" stop-color="#A37530"/>
</linearGradient>
<linearGradient id="paint17_linear_720_1123" x1="-15.9592" y1="35.3287" x2="289.272" y2="1159.13" gradientUnits="userSpaceOnUse">
<stop stop-color="#FFD06A"/>
<stop offset="1" stop-color="#A37530"/>
</linearGradient>
<linearGradient id="paint18_linear_720_1123" x1="15.581" y1="26.7597" x2="320.816" y2="1150.57" gradientUnits="userSpaceOnUse">
<stop stop-color="#FFD06A"/>
<stop offset="1" stop-color="#A37530"/>
</linearGradient>
<linearGradient id="paint19_linear_720_1123" x1="31.0127" y1="22.5687" x2="336.242" y2="1146.37" gradientUnits="userSpaceOnUse">
<stop stop-color="#FFD06A"/>
<stop offset="1" stop-color="#A37530"/>
</linearGradient>
<linearGradient id="paint20_linear_720_1123" x1="58.128" y1="15.2021" x2="363.361" y2="1139.01" gradientUnits="userSpaceOnUse">
<stop stop-color="#FFD06A"/>
<stop offset="1" stop-color="#A37530"/>
</linearGradient>
<linearGradient id="paint21_linear_720_1123" x1="81.2365" y1="8.92911" x2="386.47" y2="1132.73" gradientUnits="userSpaceOnUse">
<stop stop-color="#FFD06A"/>
<stop offset="1" stop-color="#A37530"/>
</linearGradient>
<linearGradient id="paint22_linear_720_1123" x1="96.7969" y1="4.70456" x2="402.034" y2="1128.5" gradientUnits="userSpaceOnUse">
<stop stop-color="#FFD06A"/>
<stop offset="1" stop-color="#A37530"/>
</linearGradient>
<linearGradient id="paint23_linear_720_1123" x1="113.755" y1="0.0969419" x2="418.988" y2="1123.9" gradientUnits="userSpaceOnUse">
<stop stop-color="#FFD06A"/>
<stop offset="1" stop-color="#A37530"/>
</linearGradient>
<linearGradient id="paint24_linear_720_1123" x1="140.669" y1="-7.21583" x2="445.898" y2="1116.59" gradientUnits="userSpaceOnUse">
<stop stop-color="#FFD06A"/>
<stop offset="1" stop-color="#A37530"/>
</linearGradient>
<linearGradient id="paint25_linear_720_1123" x1="174.418" y1="-16.3785" x2="479.649" y2="1107.43" gradientUnits="userSpaceOnUse">
<stop stop-color="#FFD06A"/>
<stop offset="1" stop-color="#A37530"/>
</linearGradient>
<linearGradient id="paint26_linear_720_1123" x1="201.341" y1="-23.6926" x2="506.576" y2="1100.11" gradientUnits="userSpaceOnUse">
<stop stop-color="#FFD06A"/>
<stop offset="1" stop-color="#A37530"/>
</linearGradient>
<linearGradient id="paint27_linear_720_1123" x1="226.47" y1="-30.5204" x2="531.701" y2="1093.29" gradientUnits="userSpaceOnUse">
<stop stop-color="#FFD06A"/>
<stop offset="1" stop-color="#A37530"/>
</linearGradient>
<linearGradient id="paint28_linear_720_1123" x1="247.136" y1="-36.1312" x2="552.366" y2="1087.67" gradientUnits="userSpaceOnUse">
<stop stop-color="#FFD06A"/>
<stop offset="1" stop-color="#A37530"/>
</linearGradient>
<linearGradient id="paint29_linear_720_1123" x1="267.501" y1="-41.6618" x2="572.729" y2="1082.14" gradientUnits="userSpaceOnUse">
<stop stop-color="#FFD06A"/>
<stop offset="1" stop-color="#A37530"/>
</linearGradient>
<linearGradient id="paint30_linear_720_1123" x1="289.873" y1="-47.7363" x2="595.105" y2="1076.07" gradientUnits="userSpaceOnUse">
<stop stop-color="#FFD06A"/>
<stop offset="1" stop-color="#A37530"/>
</linearGradient>
<linearGradient id="paint31_linear_720_1123" x1="306.749" y1="-52.3221" x2="611.98" y2="1071.48" gradientUnits="userSpaceOnUse">
<stop stop-color="#FFD06A"/>
<stop offset="1" stop-color="#A37530"/>
</linearGradient>
<linearGradient id="paint32_linear_720_1123" x1="324.052" y1="-57.028" x2="629.289" y2="1066.78" gradientUnits="userSpaceOnUse">
<stop stop-color="#FFD06A"/>
<stop offset="1" stop-color="#A37530"/>
</linearGradient>
<linearGradient id="paint33_linear_720_1123" x1="337.91" y1="-60.7856" x2="643.14" y2="1063.02" gradientUnits="userSpaceOnUse">
<stop stop-color="#FFD06A"/>
<stop offset="1" stop-color="#A37530"/>
</linearGradient>
<linearGradient id="paint34_linear_720_1123" x1="358.31" y1="-66.325" x2="663.538" y2="1057.48" gradientUnits="userSpaceOnUse">
<stop stop-color="#FFD06A"/>
<stop offset="1" stop-color="#A37530"/>
</linearGradient>
<linearGradient id="paint35_linear_720_1123" x1="53.688" y1="16.4112" x2="358.917" y2="1140.21" gradientUnits="userSpaceOnUse">
<stop stop-color="#FFD06A"/>
<stop offset="1" stop-color="#A37530"/>
</linearGradient>
<linearGradient id="paint36_linear_720_1123" x1="74.7182" y1="10.6969" x2="379.952" y2="1134.5" gradientUnits="userSpaceOnUse">
<stop stop-color="#FFD06A"/>
<stop offset="1" stop-color="#A37530"/>
</linearGradient>
<linearGradient id="paint37_linear_720_1123" x1="97.1159" y1="4.61241" x2="402.35" y2="1128.42" gradientUnits="userSpaceOnUse">
<stop stop-color="#FFD06A"/>
<stop offset="1" stop-color="#A37530"/>
</linearGradient>
<linearGradient id="paint38_linear_720_1123" x1="117.112" y1="-0.816611" x2="422.342" y2="1122.99" gradientUnits="userSpaceOnUse">
<stop stop-color="#FFD06A"/>
<stop offset="1" stop-color="#A37530"/>
</linearGradient>
<linearGradient id="paint39_linear_720_1123" x1="129.019" y1="-4.04976" x2="434.247" y2="1119.76" gradientUnits="userSpaceOnUse">
<stop stop-color="#FFD06A"/>
<stop offset="1" stop-color="#A37530"/>
</linearGradient>
<linearGradient id="paint40_linear_720_1123" x1="147.501" y1="-9.07031" x2="452.735" y2="1114.74" gradientUnits="userSpaceOnUse">
<stop stop-color="#FFD06A"/>
<stop offset="1" stop-color="#A37530"/>
</linearGradient>
<linearGradient id="paint41_linear_720_1123" x1="179.116" y1="-17.6578" x2="484.349" y2="1106.15" gradientUnits="userSpaceOnUse">
<stop stop-color="#FFD06A"/>
<stop offset="1" stop-color="#A37530"/>
</linearGradient>
<linearGradient id="paint42_linear_720_1123" x1="201.386" y1="-23.705" x2="506.619" y2="1100.1" gradientUnits="userSpaceOnUse">
<stop stop-color="#FFD06A"/>
<stop offset="1" stop-color="#A37530"/>
</linearGradient>
<linearGradient id="paint43_linear_720_1123" x1="240.441" y1="-34.3151" x2="545.674" y2="1089.49" gradientUnits="userSpaceOnUse">
<stop stop-color="#FFD06A"/>
<stop offset="1" stop-color="#A37530"/>
</linearGradient>
<linearGradient id="paint44_linear_720_1123" x1="264.011" y1="-40.7147" x2="569.241" y2="1083.09" gradientUnits="userSpaceOnUse">
<stop stop-color="#FFD06A"/>
<stop offset="1" stop-color="#A37530"/>
</linearGradient>
<linearGradient id="paint45_linear_720_1123" x1="289.133" y1="-47.5377" x2="594.364" y2="1076.26" gradientUnits="userSpaceOnUse">
<stop stop-color="#FFD06A"/>
<stop offset="1" stop-color="#A37530"/>
</linearGradient>
<linearGradient id="paint46_linear_720_1123" x1="313.374" y1="-54.1203" x2="618.605" y2="1069.68" gradientUnits="userSpaceOnUse">
<stop stop-color="#FFD06A"/>
<stop offset="1" stop-color="#A37530"/>
</linearGradient>
<linearGradient id="paint47_linear_720_1123" x1="329.341" y1="-58.459" x2="634.586" y2="1065.34" gradientUnits="userSpaceOnUse">
<stop stop-color="#FFD06A"/>
<stop offset="1" stop-color="#A37530"/>
</linearGradient>
<linearGradient id="paint48_linear_720_1123" x1="345.921" y1="-62.9624" x2="651.155" y2="1060.84" gradientUnits="userSpaceOnUse">
<stop stop-color="#FFD06A"/>
<stop offset="1" stop-color="#A37530"/>
</linearGradient>
<linearGradient id="paint49_linear_720_1123" x1="371.238" y1="-69.8376" x2="676.47" y2="1053.96" gradientUnits="userSpaceOnUse">
<stop stop-color="#FFD06A"/>
<stop offset="1" stop-color="#A37530"/>
</linearGradient>
<linearGradient id="paint50_linear_720_1123" x1="401.593" y1="-78.0839" x2="706.823" y2="1045.72" gradientUnits="userSpaceOnUse">
<stop stop-color="#FFD06A"/>
<stop offset="1" stop-color="#A37530"/>
</linearGradient>
<linearGradient id="paint51_linear_720_1123" x1="423.413" y1="-84.0079" x2="728.642" y2="1039.8" gradientUnits="userSpaceOnUse">
<stop stop-color="#FFD06A"/>
<stop offset="1" stop-color="#A37530"/>
</linearGradient>
<linearGradient id="paint52_linear_720_1123" x1="437.059" y1="-87.7165" x2="742.289" y2="1036.09" gradientUnits="userSpaceOnUse">
<stop stop-color="#FFD06A"/>
<stop offset="1" stop-color="#A37530"/>
</linearGradient>
<linearGradient id="paint53_linear_720_1123" x1="452.635" y1="-91.947" x2="757.865" y2="1031.86" gradientUnits="userSpaceOnUse">
<stop stop-color="#FFD06A"/>
<stop offset="1" stop-color="#A37530"/>
</linearGradient>
<linearGradient id="paint54_linear_720_1123" x1="472.169" y1="-97.2522" x2="777.403" y2="1026.55" gradientUnits="userSpaceOnUse">
<stop stop-color="#FFD06A"/>
<stop offset="1" stop-color="#A37530"/>
</linearGradient>
<linearGradient id="paint55_linear_720_1123" x1="486.612" y1="-101.175" x2="791.844" y2="1022.63" gradientUnits="userSpaceOnUse">
<stop stop-color="#FFD06A"/>
<stop offset="1" stop-color="#A37530"/>
</linearGradient>
<linearGradient id="paint56_linear_720_1123" x1="501.495" y1="-105.217" x2="806.726" y2="1018.59" gradientUnits="userSpaceOnUse">
<stop stop-color="#FFD06A"/>
<stop offset="1" stop-color="#A37530"/>
</linearGradient>
<linearGradient id="paint57_linear_720_1123" x1="505.904" y1="-106.416" x2="811.136" y2="1017.39" gradientUnits="userSpaceOnUse">
<stop stop-color="#FFD06A"/>
<stop offset="1" stop-color="#A37530"/>
</linearGradient>
<linearGradient id="paint58_linear_720_1123" x1="512.7" y1="-108.26" x2="817.934" y2="1015.54" gradientUnits="userSpaceOnUse">
<stop stop-color="#FFD06A"/>
<stop offset="1" stop-color="#A37530"/>
</linearGradient>
<linearGradient id="paint59_linear_720_1123" x1="521.345" y1="-110.609" x2="826.576" y2="1013.2" gradientUnits="userSpaceOnUse">
<stop stop-color="#FFD06A"/>
<stop offset="1" stop-color="#A37530"/>
</linearGradient>
<linearGradient id="paint60_linear_720_1123" x1="93.6643" y1="5.55286" x2="398.894" y2="1129.36" gradientUnits="userSpaceOnUse">
<stop stop-color="#FFD06A"/>
<stop offset="1" stop-color="#A37530"/>
</linearGradient>
<linearGradient id="paint61_linear_720_1123" x1="235.753" y1="-33.0416" x2="540.982" y2="1090.76" gradientUnits="userSpaceOnUse">
<stop stop-color="#FFD06A"/>
<stop offset="1" stop-color="#A37530"/>
</linearGradient>
</defs>
</svg>
