<svg width="122" height="177" viewBox="0 0 122 177" fill="none" xmlns="http://www.w3.org/2000/svg">
<path d="M0.684617 115.933C0.684617 149.191 27.7418 176.248 61 176.248C94.2582 176.248 121.315 149.191 121.315 115.933V61C121.315 27.7418 94.2582 0.684617 61 0.684617C27.7418 0.684617 0.684617 27.7418 0.684617 61V115.933Z" stroke="url(#paint0_linear_891_172)" stroke-width="0.630766"/>
<path d="M27.3995 88.2822V69.0065H29.4425V80.0257H34.2179L38.9648 74.0697H41.3816L35.8865 80.8597L41.3525 88.2822H38.9648L34.1888 81.895H29.4419V88.2822H27.3995Z" fill="url(#paint1_linear_891_172)"/>
<path d="M43.3657 88.2822V69.0065H45.4087V78.4145H45.5527C46.0129 76.0269 47.8545 73.7825 51.4789 73.7825C55.4493 73.7825 57.4342 76.429 57.4342 80.0257V88.2822H55.3919V80.2839C55.3919 77.0332 53.8672 75.6525 50.674 75.6525C46.8766 75.6525 45.4093 78.0692 45.4093 81.6078V88.2822H43.3664H43.3657Z" fill="url(#paint2_linear_891_172)"/>
<path d="M74.6645 80.4279C74.6645 76.1993 71.7054 73.7851 67.533 73.7851C63.8101 73.7851 61.2159 75.8237 60.3788 78.9007L62.3441 78.592C63.0013 76.6267 64.6466 75.4808 67.5046 75.4808C70.8399 75.4808 72.7383 77.0642 72.7383 80.0516V80.4841H62.9111V80.4898L60.1092 80.4841C60.0922 80.7089 60.0808 80.9387 60.0808 81.1748C60.0808 85.6951 62.9843 88.5701 67.5608 88.5701C71.5306 88.5701 74.4618 86.5259 74.4618 83.5669V83.3648H72.4232V83.5669C72.4232 85.6332 70.8677 86.8744 67.5324 86.8744C63.7646 86.8744 62.1244 84.9482 62.007 81.7531H74.5237C74.6076 81.3768 74.6638 80.9443 74.6638 80.4279H74.6645Z" fill="url(#paint3_linear_891_172)"/>
<path d="M77.3696 72.2578V69.0065H79.4126V72.2578H77.3696ZM77.3696 88.2828V74.0704H79.4126V88.2828H77.3696Z" fill="url(#paint4_linear_891_172)"/>
<path d="M82.8351 88.2822V74.0697H84.676V77.9543H84.82C85.2518 75.6809 86.863 73.7825 89.8264 73.7825C93.1055 73.7825 94.5443 76.1992 94.5443 78.8457V80.2555H92.5013V79.162C92.5013 76.7453 91.4944 75.5666 89.0202 75.5666C86.1432 75.5666 84.8775 77.3791 84.8775 80.5724V88.2828H82.8345L82.8351 88.2822Z" fill="url(#paint5_linear_891_172)"/>
<path d="M27.1673 67.3279V65.4308L35.9162 57.0796L39.0974 54.2651V54.1117L35.9162 54.1723H27.6256V52.2146H42.0344V54.1426L32.704 62.9528L29.9811 65.3083V65.4604L32.704 65.3998H42.4934V67.3266H27.1666L27.1673 67.3279Z" fill="url(#paint6_linear_891_172)"/>
<path d="M49.8647 61.3049L56.3831 60.5656L58.4918 60.3125V57.8749C58.4918 54.5403 56.5334 51.9108 51.9462 51.9108C47.2971 51.9108 44.6676 54.5125 44.6676 57.6899V57.8131H46.8381V57.6899C46.8381 55.0333 48.5497 53.8692 51.7953 53.8692C55.0959 53.8692 56.3831 55.0333 56.3831 57.9709V59.1281L49.1936 59.9293C46.3791 60.2304 44.3254 61.3056 44.3254 63.7772C44.3254 66.2286 46.3451 67.6321 49.3167 67.6321C52.8294 67.6321 55.493 66.0437 56.3831 63.257H56.534V67.3309H58.4924V61.9489L56.041 62.6471C55.1779 64.9205 52.7341 65.954 49.8035 65.954C47.5099 65.954 46.5029 65.1598 46.5029 63.6257C46.5029 62.0644 47.5982 61.517 49.8647 61.3043V61.3049Z" fill="url(#paint7_linear_891_172)"/>
<path d="M61.0612 59.7721C61.0612 55.183 63.7531 51.9102 68.4028 51.9102C71.9818 51.9102 74.2148 53.837 74.8885 56.4374H75.0412V46.8312H77.2136V67.3278H75.225V62.8618H75.1025C74.3682 65.8903 71.9212 67.6334 68.5866 67.6334C63.7538 67.6334 61.0612 64.36 61.0612 59.7721ZM69.1371 65.646C72.6858 65.646 75.0412 63.5967 75.0412 60.0171V59.7418C75.0412 56.01 72.8082 53.9292 69.0758 53.9292C65.6193 53.9292 63.2638 55.3977 63.2638 59.7728C63.2638 64.1478 65.589 65.6466 69.1377 65.6466L69.1371 65.646Z" fill="url(#paint8_linear_891_172)"/>
<path d="M85.6036 61.3049L92.122 60.5656L94.2307 60.3125V57.8749C94.2307 54.5403 92.2723 51.9108 87.6851 51.9108C83.036 51.9108 80.4065 54.5125 80.4065 57.6899V57.8131H82.577V57.6899C82.577 55.0333 84.2885 53.8692 87.5342 53.8692C90.8347 53.8692 92.122 55.0333 92.122 57.9709V59.1281L84.9325 59.9293C82.118 60.2304 80.0643 61.3056 80.0643 63.7772C80.0643 66.2286 82.0839 67.6321 85.0556 67.6321C88.5683 67.6321 91.2319 66.0437 92.122 63.257H92.2729V67.3309H94.2313V61.9489L91.7799 62.6471C90.9168 64.9205 88.473 65.954 85.5424 65.954C83.2487 65.954 82.2418 65.1598 82.2418 63.6257C82.2418 62.0644 83.3371 61.517 85.6036 61.3043V61.3049Z" fill="url(#paint9_linear_891_172)"/>
<path d="M16.0962 141.733L19.8583 139.497L20.0653 139.845L18.232 142.82L17.7875 143.518L17.8008 143.54L18.6253 143.483L22.1184 143.299L22.3223 143.641L18.5603 145.878L18.41 145.625L21.3071 143.902L21.7933 143.621L21.78 143.598L21.1537 143.644L17.643 143.824L17.463 143.52L19.2976 140.521L19.6367 139.993L19.6234 139.971L19.1436 140.263L16.2458 141.986L16.0962 141.733Z" fill="url(#paint10_linear_891_172)"/>
<path d="M20.643 145.713L22.7018 144.172L22.8779 144.407L20.8248 145.944C19.9524 146.598 19.8917 147.345 20.5256 148.191C21.1632 149.043 21.8968 149.195 22.7693 148.542L24.8224 147.004L24.9947 147.234L22.936 148.776C21.9644 149.503 20.9801 149.278 20.2958 148.364C19.6152 147.455 19.6714 146.441 20.643 145.713Z" fill="url(#paint11_linear_891_172)"/>
<path d="M23.0703 149.625L23.0994 149.599L23.2963 149.818L23.2377 149.87C22.713 150.342 22.7269 150.953 23.4435 151.75C24.0508 152.425 24.5742 152.587 25.0016 152.203C25.4145 151.831 25.3381 151.443 24.9826 150.814L24.5539 150.083C24.2023 149.476 23.9996 148.85 24.5438 148.361C24.9713 147.977 25.7263 147.966 26.5174 148.845C27.3167 149.735 27.1752 150.565 26.607 151.076L26.578 151.102L26.381 150.883L26.4391 150.831C26.9644 150.359 26.9543 149.761 26.299 149.032C25.6784 148.342 25.1683 148.195 24.7648 148.558C24.3374 148.942 24.429 149.308 24.8014 149.966L25.2257 150.691C25.5944 151.327 25.7478 151.927 25.2231 152.399C24.7762 152.801 24.0041 152.792 23.2351 151.937C22.3784 150.985 22.4927 150.144 23.071 149.624L23.0703 149.625Z" fill="url(#paint12_linear_891_172)"/>
<path d="M25.025 153.762L28.0415 150.59L28.2543 150.792L25.4228 153.77L27.4777 155.724L27.2934 155.918L25.025 153.762Z" fill="url(#paint13_linear_891_172)"/>
<path d="M27.8312 156.35L30.6804 153.027L30.9038 153.219L28.0547 156.541L27.8312 156.35Z" fill="url(#paint14_linear_891_172)"/>
<path d="M28.8337 157.268L31.4436 153.756L31.7688 153.997L31.222 157.448L31.0806 158.262L31.1015 158.277L31.8401 157.907L34.9917 156.393L35.3111 156.63L32.7012 160.142L32.4658 159.967L34.4759 157.262L34.8162 156.815L34.7954 156.8L34.2347 157.084L31.0648 158.6L30.782 158.39L31.3205 154.917L31.4304 154.299L31.4095 154.284L31.08 154.739L29.0698 157.443L28.8337 157.269V157.268Z" fill="url(#paint15_linear_891_172)"/>
<path d="M33.3597 160.564L37.3011 157.81L37.6446 158.013L37.1446 162.795L36.875 162.635L37.024 161.109L34.8869 159.849L33.63 160.723L33.3597 160.563V160.564ZM35.1294 159.683L37.053 160.816L37.2607 158.741L37.3295 158.16L37.3075 158.147L36.8447 158.495L35.13 159.682L35.1294 159.683Z" fill="url(#paint16_linear_891_172)"/>
<path d="M37.8269 163.135L39.6862 159.173L39.9519 159.298L39.0864 161.143L41.7954 162.414L42.661 160.568L42.9211 160.69L41.0625 164.653L40.8023 164.531L41.6843 162.651L38.9759 161.38L38.0939 163.26L37.8269 163.135Z" fill="url(#paint17_linear_891_172)"/>
<path d="M44.6044 166.002L45.8954 161.823L48.8961 162.75L48.8172 163.006L46.0975 162.166L45.5349 163.988L48.1612 164.799L48.0842 165.048L45.4579 164.237L44.8859 166.09L44.605 166.004L44.6044 166.002Z" fill="url(#paint18_linear_891_172)"/>
<path d="M48.1354 167.091L51.0085 163.23L51.3981 163.313L52.4347 168.013L52.1285 167.947L51.7882 166.451L49.3608 165.931L48.4428 167.157L48.136 167.091L48.1354 167.091ZM49.5375 165.694L51.7219 166.163L51.2636 164.127L51.1462 163.554L51.1203 163.548L50.7907 164.026L49.5375 165.694Z" fill="url(#paint19_linear_891_172)"/>
<path d="M53.1113 166.733L53.1163 166.694L53.408 166.731L53.3979 166.808C53.3108 167.508 53.7218 167.961 54.7843 168.093C55.6846 168.204 56.1858 167.983 56.2566 167.414C56.3254 166.863 56.0129 166.62 55.333 166.378L54.5312 166.107C53.8683 165.88 53.3057 165.54 53.3954 164.814C53.4661 164.244 54.0286 163.742 55.2016 163.887C56.3873 164.034 56.8241 164.754 56.73 165.512L56.725 165.55L56.4333 165.514L56.4428 165.436C56.5299 164.736 56.1316 164.292 55.1593 164.171C54.2395 164.057 53.7578 164.28 53.6909 164.818C53.6202 165.388 53.9289 165.604 54.641 165.856L55.4365 166.127C56.1309 166.364 56.6398 166.718 56.552 167.417C56.4782 168.013 55.8898 168.512 54.7496 168.371C53.4794 168.213 53.016 167.504 53.1113 166.733Z" fill="url(#paint20_linear_891_172)"/>
<path d="M57.3301 168.585L57.4917 164.211L57.7859 164.222L57.7108 166.259L60.7014 166.369L60.7765 164.332L61.0637 164.343L60.9021 168.717L60.6149 168.706L60.6913 166.63L57.7013 166.52L57.6243 168.596L57.3307 168.585H57.3301Z" fill="url(#paint21_linear_891_172)"/>
<path d="M61.9177 168.678L61.823 164.304L62.1172 164.298L62.2113 168.672L61.9177 168.678Z" fill="url(#paint22_linear_891_172)"/>
<path d="M62.8881 166.509C62.7751 165.148 63.6135 164.186 64.8572 164.083C66.1079 163.98 67.0864 164.79 67.1994 166.151C67.3124 167.512 66.4804 168.473 65.2303 168.577C63.9866 168.68 63.0005 167.87 62.8881 166.509ZM66.8996 166.176C66.7954 164.919 66.0328 164.267 64.8806 164.363C63.7278 164.459 63.0832 165.227 63.1874 166.484C63.2915 167.741 64.0529 168.386 65.2057 168.29C66.3585 168.194 67.0037 167.433 66.8996 166.176Z" fill="url(#paint23_linear_891_172)"/>
<path d="M68.3246 168.196L67.5398 163.888L67.8612 163.829L70.9496 166.601L71.5708 167.165L71.5961 167.16L71.4717 166.512L70.8827 163.278L71.1655 163.226L71.9503 167.534L71.6352 167.591L68.5865 164.859L67.9262 164.262L67.9009 164.267L68.0341 164.96L68.6137 168.142L68.3246 168.196Z" fill="url(#paint24_linear_891_172)"/>
<path d="M73.5331 164.908C73.1271 163.605 73.7231 162.488 74.9024 162.12C75.9068 161.807 76.8942 162.143 77.1777 163.054L77.1992 163.123L76.9062 163.214L76.8848 163.146C76.6455 162.378 75.9466 162.09 74.9857 162.389C73.9005 162.728 73.4447 163.615 73.8197 164.819C74.1947 166.023 75.0723 166.489 76.1575 166.151C77.1184 165.851 77.5319 165.223 77.2907 164.449L77.2711 164.387L77.5641 164.295L77.5836 164.358C77.8696 165.274 77.2535 166.11 76.2427 166.425C75.064 166.792 73.9384 166.212 73.5324 164.908H73.5331Z" fill="url(#paint25_linear_891_172)"/>
<path d="M77.9098 163.526C77.3789 162.269 77.8751 161.095 79.0235 160.61C80.1782 160.122 81.3594 160.587 81.891 161.844C82.4225 163.101 81.932 164.272 80.7773 164.76C79.6289 165.245 78.4414 164.783 77.9098 163.526ZM81.6145 161.96C81.1239 160.8 80.1978 160.418 79.1327 160.868C78.0683 161.318 77.6958 162.248 78.1864 163.409C78.6769 164.569 79.6012 164.944 80.665 164.494C81.7294 164.045 82.1044 163.12 81.6138 161.959L81.6145 161.96Z" fill="url(#paint26_linear_891_172)"/>
<path d="M83.5729 163.425L81.5142 159.562L81.7736 159.424L83.7068 163.05L86.2087 161.716L86.335 161.952L83.5736 163.425H83.5729Z" fill="url(#paint27_linear_891_172)"/>
<path d="M87.0023 161.551L84.6538 157.856L84.9019 157.699L87.1065 161.168L89.4998 159.646L89.6438 159.872L87.0023 161.551Z" fill="url(#paint28_linear_891_172)"/>
<path d="M90.2857 159.417L87.6537 155.922L90.2099 153.996L90.3709 154.21L88.0495 155.959L89.1184 157.378L91.3615 155.688L91.5187 155.897L89.2756 157.586L90.3596 159.026L92.6809 157.277L92.8426 157.491L90.2863 159.416L90.2857 159.417Z" fill="url(#paint29_linear_891_172)"/>
<path d="M91.9795 155.388C91.0666 154.373 91.143 153.109 92.0609 152.284C92.8432 151.58 93.8811 151.473 94.5187 152.183L94.5667 152.236L94.3381 152.441L94.2902 152.388C93.7529 151.79 92.9972 151.82 92.2491 152.493C91.4038 153.253 91.3602 154.25 92.203 155.188C93.0465 156.125 94.0383 156.182 94.8836 155.422C95.6317 154.75 95.7454 154.006 95.2037 153.404L95.1601 153.355L95.3887 153.15L95.4322 153.198C96.0743 153.913 95.8634 154.929 95.0762 155.637C94.1576 156.462 92.8931 156.404 91.9795 155.388Z" fill="url(#paint30_linear_891_172)"/>
<path d="M98.1117 152.556L95.1022 149.76L93.8358 151.124L93.6394 150.941L96.3636 148.008L96.5599 148.191L95.2979 149.549L98.3074 152.345L98.1117 152.555V152.556Z" fill="url(#paint31_linear_891_172)"/>
<path d="M99.9622 150.46L96.5953 147.661L96.7835 147.435L100.15 150.234L99.9622 150.46Z" fill="url(#paint32_linear_891_172)"/>
<path d="M98.9559 148.31C97.8536 147.504 97.6755 146.242 98.4123 145.235C99.1522 144.222 100.405 144.013 101.508 144.819C102.61 145.624 102.792 146.881 102.052 147.894C101.316 148.902 100.058 149.116 98.9559 148.31ZM101.33 145.061C100.313 144.317 99.3214 144.466 98.639 145.4C97.9571 146.334 98.1156 147.324 99.1333 148.068C100.151 148.811 101.137 148.658 101.82 147.724C102.501 146.79 102.348 145.805 101.33 145.061Z" fill="url(#paint33_linear_891_172)"/>
<path d="M103.793 145.296L100.025 143.069L100.191 142.788L104.307 142.269L105.14 142.169L105.153 142.147L104.582 141.817L101.753 140.146L101.899 139.898L105.667 142.125L105.504 142.4L101.445 142.915L100.561 143.023L100.548 143.045L101.159 143.398L103.942 145.043L103.793 145.296Z" fill="url(#paint34_linear_891_172)"/>
<path d="M19.3552 38.9875L15.6039 36.7337L15.8129 36.3865L19.3009 36.5929L20.1255 36.6541L20.1387 36.632L19.6981 35.9325L17.8823 32.9438L18.0875 32.6023L21.8389 34.8561L21.6874 35.108L18.7984 33.3719L18.3205 33.0777L18.3072 33.0998L18.6437 33.6301L20.4645 36.6365L20.2826 36.9389L16.7737 36.7425L16.1475 36.6939L16.1342 36.716L16.6191 37.0001L19.508 38.7356L19.3565 38.9875H19.3552Z" fill="url(#paint35_linear_891_172)"/>
<path d="M20.8274 33.1787L18.7756 31.6243L18.953 31.3901L20.9998 32.9406C21.8697 33.5991 22.6046 33.4514 23.2442 32.6079C23.8869 31.7588 23.8306 31.0107 22.9607 30.3522L20.9139 28.8017L21.0875 28.5725L23.1394 30.1268C24.1078 30.8604 24.1634 31.8699 23.4727 32.7809C22.7858 33.6875 21.7959 33.9123 20.8274 33.1787Z" fill="url(#paint36_linear_891_172)"/>
<path d="M23.9021 29.9103L23.8731 29.8844L24.0707 29.6666L24.1288 29.719C24.6521 30.1925 25.2588 30.1167 25.9779 29.3225C26.5871 28.6489 26.6951 28.1123 26.2689 27.7259C25.8573 27.3534 25.4792 27.4683 24.8889 27.8863L24.2058 28.3875C23.6388 28.7998 23.0365 29.0649 22.4942 28.5738C22.0681 28.188 21.9804 27.438 22.7739 26.5624C23.5764 25.676 24.4166 25.7315 24.9829 26.2442L25.012 26.2707L24.8144 26.4885L24.7563 26.4361C24.2329 25.9626 23.6401 26.0333 22.9823 26.76C22.3598 27.4475 22.2651 27.9702 22.6672 28.3339C23.0934 28.7196 23.4482 28.5915 24.0643 28.1539L24.743 27.6577C25.3371 27.2259 25.9179 27.0125 26.4413 27.486C26.887 27.8894 26.9571 28.6584 26.1856 29.5107C25.3258 30.4602 24.4785 30.4324 23.9021 29.9103Z" fill="url(#paint37_linear_891_172)"/>
<path d="M27.6717 27.8269L24.6716 24.6438L24.8856 24.4424L27.702 27.4311L29.7639 25.4879L29.9476 25.6823L27.6717 27.8269Z" fill="url(#paint38_linear_891_172)"/>
<path d="M30.3505 25.3717L27.5121 22.044L27.7356 21.8533L30.574 25.181L30.3505 25.3717Z" fill="url(#paint39_linear_891_172)"/>
<path d="M31.1528 24.6198L28.5536 21.0976L28.8793 20.8571L32.0221 22.3874L32.7601 22.7605L32.7809 22.7447L32.6427 21.9297L32.113 18.4713L32.4337 18.2345L35.0329 21.7567L34.7961 21.9316L32.7949 19.2181L32.4665 18.7623L32.4457 18.7775L32.5537 19.3968L33.0802 22.8729L32.7961 23.0825L29.63 21.5534L29.0707 21.2681L29.0492 21.2832L29.3882 21.7314L31.3901 24.4449L31.1534 24.6191L31.1528 24.6198Z" fill="url(#paint40_linear_891_172)"/>
<path d="M35.352 21.5635L34.8684 16.7755L35.2125 16.5748L39.1475 19.3444L38.8767 19.5022L37.6159 18.6278L35.4726 19.881L35.6222 21.4057L35.352 21.5635ZM35.4448 19.5868L37.3735 18.4593L35.6613 17.2654L35.1878 16.9214L35.1651 16.9346L35.244 17.5091L35.4448 19.5868Z" fill="url(#paint41_linear_891_172)"/>
<path d="M39.494 19.1828L37.6461 15.2143L37.9125 15.0905L38.7731 16.9384L41.4859 15.6752L40.6254 13.8273L40.8861 13.706L42.734 17.6739L42.4732 17.7952L41.5963 15.9119L38.8835 17.1746L39.7604 19.0578L39.494 19.1828Z" fill="url(#paint42_linear_891_172)"/>
<path d="M45.7889 16.5205L44.5085 12.3355L47.513 11.4169L47.5913 11.6726L44.8678 12.5053L45.4252 14.3292L48.0554 13.5249L48.1317 13.7749L45.5023 14.5792L46.0698 16.4347L45.7889 16.5205Z" fill="url(#paint43_linear_891_172)"/>
<path d="M48.9967 15.5242L50.0384 10.8278L50.4279 10.7451L53.2954 14.6076L52.9892 14.6732L52.0669 13.4472L49.6394 13.9649L49.3035 15.4592L48.9967 15.5242ZM49.7051 13.6776L51.8895 13.2117L50.6388 11.5418L50.2972 11.0671L50.2714 11.0721L50.166 11.6428L49.7051 13.6776Z" fill="url(#paint44_linear_891_172)"/>
<path d="M53.3087 13.2502L53.3036 13.2117L53.5953 13.1763L53.6048 13.2546C53.69 13.9554 54.1989 14.295 55.2627 14.165C56.1642 14.0558 56.5973 13.7193 56.5284 13.1486C56.4609 12.5974 56.0992 12.437 55.3801 12.3663L54.5354 12.2982C53.8371 12.2382 53.2077 12.0444 53.1193 11.3183C53.0499 10.7476 53.4741 10.1226 54.6484 9.97992C55.8353 9.83598 56.4337 10.4282 56.5266 11.1864L56.531 11.2255L56.2393 11.2609L56.2298 11.1832C56.1446 10.4825 55.6496 10.1479 54.6768 10.2659C53.7557 10.3783 53.3422 10.7116 53.4072 11.2502C53.4766 11.8209 53.8289 11.9553 54.5814 12.0292L55.4192 12.098C56.1509 12.1605 56.7305 12.3796 56.8157 13.0804C56.8883 13.677 56.4382 14.3045 55.2961 14.4434C54.0246 14.5981 53.4021 14.0217 53.3087 13.2502Z" fill="url(#paint45_linear_891_172)"/>
<path d="M57.5045 14.1303L57.3485 9.75648L57.6421 9.74575L57.7147 11.783L60.7053 11.6763L60.6327 9.63969L60.92 9.62895L61.0759 14.0034L60.7886 14.0135L60.7148 11.9377L57.7242 12.0438L57.798 14.1196L57.5045 14.1303Z" fill="url(#paint46_linear_891_172)"/>
<path d="M61.8986 14.0432L61.9989 9.6687L62.2925 9.67565L62.1921 14.0495L61.8986 14.0432Z" fill="url(#paint47_linear_891_172)"/>
<path d="M62.9825 11.8373C63.0955 10.4762 64.0804 9.6662 65.3247 9.7691C66.5754 9.87264 67.4068 10.8335 67.2938 12.194C67.1808 13.5552 66.2022 14.3658 64.9522 14.2623C63.7085 14.1593 62.8695 13.1978 62.9825 11.8373ZM66.9939 12.1694C67.0981 10.9124 66.4535 10.1447 65.3007 10.0494C64.1479 9.95345 63.3859 10.605 63.2817 11.862C63.1775 13.1189 63.8228 13.8797 64.9756 13.9756C66.1284 14.0716 66.8897 13.4264 66.9939 12.1694Z" fill="url(#paint48_linear_891_172)"/>
<path d="M67.6841 14.4687L68.4688 10.1618L68.7902 10.2205L70.7031 13.9037L71.085 14.6505L71.1109 14.6556L71.2227 14.0047L71.8117 10.771L72.0945 10.8228L71.3098 15.1303L70.9947 15.0729L69.1058 11.4409L68.6986 10.6492L68.6733 10.6441L68.5534 11.3392L67.9739 14.5217L67.6841 14.4687Z" fill="url(#paint49_linear_891_172)"/>
<path d="M73.7454 13.4674C74.1513 12.1631 75.2769 11.5835 76.4556 11.951C77.4601 12.2641 78.0819 13.1012 77.7985 14.0122L77.777 14.0811L77.4841 13.9895L77.5055 13.9207C77.7448 13.1536 77.3332 12.5192 76.3729 12.2193C75.2877 11.8809 74.4082 12.3525 74.0332 13.5571C73.6582 14.7616 74.1159 15.6423 75.2012 15.9813C76.1621 16.2806 76.8591 15.9978 77.0996 15.2244L77.1192 15.1619L77.4121 15.2534L77.3925 15.3159C77.1065 16.2332 76.1254 16.5704 75.1153 16.256C73.936 15.8885 73.34 14.7717 73.746 13.468L73.7454 13.4674Z" fill="url(#paint50_linear_891_172)"/>
<path d="M78.1709 14.8708C78.7025 13.6138 79.8901 13.1523 81.0385 13.6372C82.1932 14.1252 82.6831 15.2963 82.1521 16.5533C81.6205 17.8103 80.4393 18.2749 79.2846 17.7869C78.1362 17.3014 77.64 16.1278 78.1709 14.8708ZM81.8756 16.4365C82.3661 15.2761 81.9936 14.3462 80.9292 13.896C79.8648 13.4465 78.938 13.8272 78.4475 14.9882C77.957 16.1486 78.332 17.0729 79.3964 17.523C80.4608 17.9725 81.385 17.5981 81.8749 16.4371L81.8756 16.4365Z" fill="url(#paint51_linear_891_172)"/>
<path d="M81.8224 18.8527L83.8761 14.9902L84.1356 15.1285L82.2075 18.7542L84.7094 20.085L84.5838 20.3211L81.8224 18.8527Z" fill="url(#paint52_linear_891_172)"/>
<path d="M84.9937 20.5723L87.3365 16.8772L87.5846 17.0344L85.3851 20.5035L87.7784 22.0212L87.6351 22.2472L84.9937 20.5723Z" fill="url(#paint53_linear_891_172)"/>
<path d="M88.0278 22.5282L90.6548 19.0275L93.2148 20.9486L93.0544 21.1626L90.7293 19.4176L89.6629 20.8388L91.9098 22.5244L91.7533 22.7334L89.5064 21.0477L88.4243 22.4897L90.7495 24.2347L90.5885 24.4487L88.0278 22.5282Z" fill="url(#paint54_linear_891_172)"/>
<path d="M92.3871 23.0775C93.2987 22.0604 94.5633 22.0004 95.4831 22.8243C96.2672 23.5263 96.485 24.5459 95.848 25.2568L95.8 25.3105L95.5709 25.1053L95.6189 25.0523C96.1555 24.4538 96.0444 23.705 95.295 23.0339C94.4478 22.2751 93.4522 22.3388 92.61 23.2782C91.7684 24.2177 91.8183 25.2095 92.6655 25.9689C93.4149 26.6407 94.1668 26.6735 94.7072 26.0693L94.7508 26.0207L94.9799 26.2253L94.9364 26.2739C94.295 26.9892 93.2621 26.8888 92.4736 26.1823C91.5538 25.3578 91.4748 24.0939 92.3865 23.0768L92.3871 23.0775Z" fill="url(#paint55_linear_891_172)"/>
<path d="M95.3539 28.916L98.3583 26.1161L97.0894 24.7549L97.2851 24.5725L100.014 27.4999L99.8186 27.6824L98.5541 26.3263L95.5496 29.1268L95.3539 28.9166V28.916Z" fill="url(#paint56_linear_891_172)"/>
<path d="M97.076 30.856L100.438 28.0511L100.627 28.2764L97.2648 31.0821L97.076 30.856Z" fill="url(#paint57_linear_891_172)"/>
<path d="M99.451 30.2228C100.551 29.4134 101.81 29.6249 102.549 30.6306C103.292 31.642 103.114 32.9002 102.014 33.7089C100.913 34.5177 99.6587 34.3125 98.9156 33.3011C98.1763 32.2954 98.3499 31.0315 99.451 30.2228ZM101.835 33.4665C102.852 32.7196 103.008 31.7291 102.323 30.7966C101.638 29.8648 100.645 29.7177 99.629 30.4652C98.6126 31.212 98.4623 32.1988 99.1473 33.1313C99.8323 34.0631 100.819 34.214 101.835 33.4665Z" fill="url(#paint58_linear_891_172)"/>
<path d="M100.561 35.5026L104.323 33.2658L104.49 33.5468L102.97 37.4073L102.658 38.1857L102.671 38.2085L103.235 37.8657L106.059 36.1857L106.206 36.4332L102.444 38.67L102.28 38.3953L103.778 34.5865L104.106 33.7601L104.093 33.7374L103.49 34.1036L100.711 35.7564L100.56 35.5039L100.561 35.5026Z" fill="url(#paint59_linear_891_172)"/>
<path d="M20.7971 101.178C20.7971 101.178 56.1628 96.603 61.4931 113.386C61.4931 113.386 63.9432 119.909 57.8534 130.013C51.7637 140.117 61.1326 149.199 71.8556 149.424C71.8556 149.424 58.3465 144.153 66.3088 131.062C72.0198 121.672 81.1772 93.3542 20.7978 101.178H20.7971Z" fill="url(#paint60_linear_891_172)"/>
<path d="M80.5508 146.864C83.153 146.864 85.2624 144.755 85.2624 142.152C85.2624 139.55 83.153 137.441 80.5508 137.441C77.9487 137.441 75.8392 139.55 75.8392 142.152C75.8392 144.755 77.9487 146.864 80.5508 146.864Z" fill="url(#paint61_linear_891_172)"/>
<defs>
<linearGradient id="paint0_linear_891_172" x1="36.0632" y1="-3.34542" x2="87.4962" y2="186.02" gradientUnits="userSpaceOnUse">
<stop stop-color="#FFD06A"/>
<stop offset="1" stop-color="#A37530"/>
</linearGradient>
<linearGradient id="paint1_linear_891_172" x1="13.1259" y1="2.88456" x2="64.5581" y2="192.25" gradientUnits="userSpaceOnUse">
<stop stop-color="#FFD06A"/>
<stop offset="1" stop-color="#A37530"/>
</linearGradient>
<linearGradient id="paint2_linear_891_172" x1="27.4285" y1="-0.99999" x2="78.8606" y2="188.365" gradientUnits="userSpaceOnUse">
<stop stop-color="#FFD06A"/>
<stop offset="1" stop-color="#A37530"/>
</linearGradient>
<linearGradient id="paint3_linear_891_172" x1="43.9144" y1="-5.47726" x2="95.3466" y2="183.887" gradientUnits="userSpaceOnUse">
<stop stop-color="#FFD06A"/>
<stop offset="1" stop-color="#A37530"/>
</linearGradient>
<linearGradient id="paint4_linear_891_172" x1="54.744" y1="-8.41866" x2="106.176" y2="180.946" gradientUnits="userSpaceOnUse">
<stop stop-color="#FFD06A"/>
<stop offset="1" stop-color="#A37530"/>
</linearGradient>
<linearGradient id="paint5_linear_891_172" x1="63.2059" y1="-10.7174" x2="114.638" y2="178.648" gradientUnits="userSpaceOnUse">
<stop stop-color="#FFD06A"/>
<stop offset="1" stop-color="#A37530"/>
</linearGradient>
<linearGradient id="paint6_linear_891_172" x1="18.7359" y1="1.36122" x2="70.1687" y2="190.726" gradientUnits="userSpaceOnUse">
<stop stop-color="#FFD06A"/>
<stop offset="1" stop-color="#A37530"/>
</linearGradient>
<linearGradient id="paint7_linear_891_172" x1="34.1825" y1="-2.83407" x2="85.6148" y2="186.53" gradientUnits="userSpaceOnUse">
<stop stop-color="#FFD06A"/>
<stop offset="1" stop-color="#A37530"/>
</linearGradient>
<linearGradient id="paint8_linear_891_172" x1="52.3583" y1="-7.77098" x2="103.791" y2="181.594" gradientUnits="userSpaceOnUse">
<stop stop-color="#FFD06A"/>
<stop offset="1" stop-color="#A37530"/>
</linearGradient>
<linearGradient id="paint9_linear_891_172" x1="67.4662" y1="-11.874" x2="118.898" y2="177.49" gradientUnits="userSpaceOnUse">
<stop stop-color="#FFD06A"/>
<stop offset="1" stop-color="#A37530"/>
</linearGradient>
<linearGradient id="paint10_linear_891_172" x1="-16.5711" y1="10.9505" x2="34.8619" y2="200.315" gradientUnits="userSpaceOnUse">
<stop stop-color="#FFD06A"/>
<stop offset="1" stop-color="#A37530"/>
</linearGradient>
<linearGradient id="paint11_linear_891_172" x1="-14.7497" y1="10.4558" x2="36.6835" y2="199.821" gradientUnits="userSpaceOnUse">
<stop stop-color="#FFD06A"/>
<stop offset="1" stop-color="#A37530"/>
</linearGradient>
<linearGradient id="paint12_linear_891_172" x1="-13.2588" y1="10.0509" x2="38.1733" y2="199.416" gradientUnits="userSpaceOnUse">
<stop stop-color="#FFD06A"/>
<stop offset="1" stop-color="#A37530"/>
</linearGradient>
<linearGradient id="paint13_linear_891_172" x1="-12.0767" y1="9.73016" x2="39.3556" y2="199.095" gradientUnits="userSpaceOnUse">
<stop stop-color="#FFD06A"/>
<stop offset="1" stop-color="#A37530"/>
</linearGradient>
<linearGradient id="paint14_linear_891_172" x1="-10.1703" y1="9.21213" x2="41.2621" y2="198.577" gradientUnits="userSpaceOnUse">
<stop stop-color="#FFD06A"/>
<stop offset="1" stop-color="#A37530"/>
</linearGradient>
<linearGradient id="paint15_linear_891_172" x1="-8.19843" y1="8.6764" x2="43.2341" y2="198.041" gradientUnits="userSpaceOnUse">
<stop stop-color="#FFD06A"/>
<stop offset="1" stop-color="#A37530"/>
</linearGradient>
<linearGradient id="paint16_linear_891_172" x1="-5.59717" y1="7.97026" x2="45.8346" y2="197.335" gradientUnits="userSpaceOnUse">
<stop stop-color="#FFD06A"/>
<stop offset="1" stop-color="#A37530"/>
</linearGradient>
<linearGradient id="paint17_linear_891_172" x1="-1.72303" y1="6.91819" x2="49.7094" y2="196.283" gradientUnits="userSpaceOnUse">
<stop stop-color="#FFD06A"/>
<stop offset="1" stop-color="#A37530"/>
</linearGradient>
<linearGradient id="paint18_linear_891_172" x1="3.59167" y1="5.47427" x2="55.0248" y2="194.839" gradientUnits="userSpaceOnUse">
<stop stop-color="#FFD06A"/>
<stop offset="1" stop-color="#A37530"/>
</linearGradient>
<linearGradient id="paint19_linear_891_172" x1="6.19195" y1="4.76809" x2="57.6241" y2="194.133" gradientUnits="userSpaceOnUse">
<stop stop-color="#FFD06A"/>
<stop offset="1" stop-color="#A37530"/>
</linearGradient>
<linearGradient id="paint20_linear_891_172" x1="10.7609" y1="3.52683" x2="62.1936" y2="192.892" gradientUnits="userSpaceOnUse">
<stop stop-color="#FFD06A"/>
<stop offset="1" stop-color="#A37530"/>
</linearGradient>
<linearGradient id="paint21_linear_891_172" x1="14.6549" y1="2.46982" x2="66.0878" y2="191.834" gradientUnits="userSpaceOnUse">
<stop stop-color="#FFD06A"/>
<stop offset="1" stop-color="#A37530"/>
</linearGradient>
<linearGradient id="paint22_linear_891_172" x1="17.2767" y1="1.75792" x2="68.7102" y2="191.122" gradientUnits="userSpaceOnUse">
<stop stop-color="#FFD06A"/>
<stop offset="1" stop-color="#A37530"/>
</linearGradient>
<linearGradient id="paint23_linear_891_172" x1="20.1342" y1="0.981644" x2="71.5669" y2="190.346" gradientUnits="userSpaceOnUse">
<stop stop-color="#FFD06A"/>
<stop offset="1" stop-color="#A37530"/>
</linearGradient>
<linearGradient id="paint24_linear_891_172" x1="24.6694" y1="-0.250579" x2="76.1015" y2="189.115" gradientUnits="userSpaceOnUse">
<stop stop-color="#FFD06A"/>
<stop offset="1" stop-color="#A37530"/>
</linearGradient>
<linearGradient id="paint25_linear_891_172" x1="30.3563" y1="-1.79457" x2="81.7887" y2="187.57" gradientUnits="userSpaceOnUse">
<stop stop-color="#FFD06A"/>
<stop offset="1" stop-color="#A37530"/>
</linearGradient>
<linearGradient id="paint26_linear_891_172" x1="34.8926" y1="-3.02713" x2="86.3257" y2="186.338" gradientUnits="userSpaceOnUse">
<stop stop-color="#FFD06A"/>
<stop offset="1" stop-color="#A37530"/>
</linearGradient>
<linearGradient id="paint27_linear_891_172" x1="39.127" y1="-4.17756" x2="90.5594" y2="185.188" gradientUnits="userSpaceOnUse">
<stop stop-color="#FFD06A"/>
<stop offset="1" stop-color="#A37530"/>
</linearGradient>
<linearGradient id="paint28_linear_891_172" x1="42.6094" y1="-5.12302" x2="94.0417" y2="184.242" gradientUnits="userSpaceOnUse">
<stop stop-color="#FFD06A"/>
<stop offset="1" stop-color="#A37530"/>
</linearGradient>
<linearGradient id="paint29_linear_891_172" x1="46.0408" y1="-6.05485" x2="97.4727" y2="183.31" gradientUnits="userSpaceOnUse">
<stop stop-color="#FFD06A"/>
<stop offset="1" stop-color="#A37530"/>
</linearGradient>
<linearGradient id="paint30_linear_891_172" x1="49.8107" y1="-7.07842" x2="101.243" y2="182.286" gradientUnits="userSpaceOnUse">
<stop stop-color="#FFD06A"/>
<stop offset="1" stop-color="#A37530"/>
</linearGradient>
<linearGradient id="paint31_linear_891_172" x1="52.6544" y1="-7.85121" x2="104.087" y2="181.513" gradientUnits="userSpaceOnUse">
<stop stop-color="#FFD06A"/>
<stop offset="1" stop-color="#A37530"/>
</linearGradient>
<linearGradient id="paint32_linear_891_172" x1="55.57" y1="-8.64419" x2="107.004" y2="180.722" gradientUnits="userSpaceOnUse">
<stop stop-color="#FFD06A"/>
<stop offset="1" stop-color="#A37530"/>
</linearGradient>
<linearGradient id="paint33_linear_891_172" x1="57.9051" y1="-9.27732" x2="109.337" y2="180.088" gradientUnits="userSpaceOnUse">
<stop stop-color="#FFD06A"/>
<stop offset="1" stop-color="#A37530"/>
</linearGradient>
<linearGradient id="paint34_linear_891_172" x1="61.3425" y1="-10.2108" x2="112.774" y2="179.154" gradientUnits="userSpaceOnUse">
<stop stop-color="#FFD06A"/>
<stop offset="1" stop-color="#A37530"/>
</linearGradient>
<linearGradient id="paint35_linear_891_172" x1="10.0128" y1="3.73048" x2="61.4449" y2="193.095" gradientUnits="userSpaceOnUse">
<stop stop-color="#FFD06A"/>
<stop offset="1" stop-color="#A37530"/>
</linearGradient>
<linearGradient id="paint36_linear_891_172" x1="13.5565" y1="2.76765" x2="64.9894" y2="192.133" gradientUnits="userSpaceOnUse">
<stop stop-color="#FFD06A"/>
<stop offset="1" stop-color="#A37530"/>
</linearGradient>
<linearGradient id="paint37_linear_891_172" x1="17.3306" y1="1.74239" x2="68.7635" y2="191.108" gradientUnits="userSpaceOnUse">
<stop stop-color="#FFD06A"/>
<stop offset="1" stop-color="#A37530"/>
</linearGradient>
<linearGradient id="paint38_linear_891_172" x1="20.7" y1="0.827621" x2="72.1322" y2="190.193" gradientUnits="userSpaceOnUse">
<stop stop-color="#FFD06A"/>
<stop offset="1" stop-color="#A37530"/>
</linearGradient>
<linearGradient id="paint39_linear_891_172" x1="22.7064" y1="0.282769" x2="74.1384" y2="189.648" gradientUnits="userSpaceOnUse">
<stop stop-color="#FFD06A"/>
<stop offset="1" stop-color="#A37530"/>
</linearGradient>
<linearGradient id="paint40_linear_891_172" x1="25.8206" y1="-0.563208" x2="77.2534" y2="188.802" gradientUnits="userSpaceOnUse">
<stop stop-color="#FFD06A"/>
<stop offset="1" stop-color="#A37530"/>
</linearGradient>
<linearGradient id="paint41_linear_891_172" x1="31.148" y1="-2.01022" x2="82.5808" y2="187.355" gradientUnits="userSpaceOnUse">
<stop stop-color="#FFD06A"/>
<stop offset="1" stop-color="#A37530"/>
</linearGradient>
<linearGradient id="paint42_linear_891_172" x1="34.9005" y1="-3.02916" x2="86.3333" y2="186.335" gradientUnits="userSpaceOnUse">
<stop stop-color="#FFD06A"/>
<stop offset="1" stop-color="#A37530"/>
</linearGradient>
<linearGradient id="paint43_linear_891_172" x1="41.4813" y1="-4.81706" x2="92.9141" y2="184.548" gradientUnits="userSpaceOnUse">
<stop stop-color="#FFD06A"/>
<stop offset="1" stop-color="#A37530"/>
</linearGradient>
<linearGradient id="paint44_linear_891_172" x1="45.4531" y1="-5.8954" x2="96.8852" y2="183.469" gradientUnits="userSpaceOnUse">
<stop stop-color="#FFD06A"/>
<stop offset="1" stop-color="#A37530"/>
</linearGradient>
<linearGradient id="paint45_linear_891_172" x1="49.6862" y1="-7.04505" x2="101.119" y2="182.319" gradientUnits="userSpaceOnUse">
<stop stop-color="#FFD06A"/>
<stop offset="1" stop-color="#A37530"/>
</linearGradient>
<linearGradient id="paint46_linear_891_172" x1="53.7708" y1="-8.15427" x2="105.203" y2="181.21" gradientUnits="userSpaceOnUse">
<stop stop-color="#FFD06A"/>
<stop offset="1" stop-color="#A37530"/>
</linearGradient>
<linearGradient id="paint47_linear_891_172" x1="56.4613" y1="-8.88534" x2="107.896" y2="180.478" gradientUnits="userSpaceOnUse">
<stop stop-color="#FFD06A"/>
<stop offset="1" stop-color="#A37530"/>
</linearGradient>
<linearGradient id="paint48_linear_891_172" x1="59.2551" y1="-9.64419" x2="110.688" y2="179.721" gradientUnits="userSpaceOnUse">
<stop stop-color="#FFD06A"/>
<stop offset="1" stop-color="#A37530"/>
</linearGradient>
<linearGradient id="paint49_linear_891_172" x1="63.5211" y1="-10.8027" x2="114.954" y2="178.562" gradientUnits="userSpaceOnUse">
<stop stop-color="#FFD06A"/>
<stop offset="1" stop-color="#A37530"/>
</linearGradient>
<linearGradient id="paint50_linear_891_172" x1="68.636" y1="-12.1922" x2="120.068" y2="177.173" gradientUnits="userSpaceOnUse">
<stop stop-color="#FFD06A"/>
<stop offset="1" stop-color="#A37530"/>
</linearGradient>
<linearGradient id="paint51_linear_891_172" x1="72.3129" y1="-13.1904" x2="123.745" y2="176.174" gradientUnits="userSpaceOnUse">
<stop stop-color="#FFD06A"/>
<stop offset="1" stop-color="#A37530"/>
</linearGradient>
<linearGradient id="paint52_linear_891_172" x1="74.612" y1="-13.8153" x2="126.044" y2="175.55" gradientUnits="userSpaceOnUse">
<stop stop-color="#FFD06A"/>
<stop offset="1" stop-color="#A37530"/>
</linearGradient>
<linearGradient id="paint53_linear_891_172" x1="77.2366" y1="-14.5282" x2="128.669" y2="174.837" gradientUnits="userSpaceOnUse">
<stop stop-color="#FFD06A"/>
<stop offset="1" stop-color="#A37530"/>
</linearGradient>
<linearGradient id="paint54_linear_891_172" x1="80.5283" y1="-15.4221" x2="131.961" y2="173.943" gradientUnits="userSpaceOnUse">
<stop stop-color="#FFD06A"/>
<stop offset="1" stop-color="#A37530"/>
</linearGradient>
<linearGradient id="paint55_linear_891_172" x1="82.9621" y1="-16.0831" x2="134.395" y2="173.282" gradientUnits="userSpaceOnUse">
<stop stop-color="#FFD06A"/>
<stop offset="1" stop-color="#A37530"/>
</linearGradient>
<linearGradient id="paint56_linear_891_172" x1="85.4699" y1="-16.7642" x2="136.902" y2="172.601" gradientUnits="userSpaceOnUse">
<stop stop-color="#FFD06A"/>
<stop offset="1" stop-color="#A37530"/>
</linearGradient>
<linearGradient id="paint57_linear_891_172" x1="86.2128" y1="-16.9662" x2="137.645" y2="172.399" gradientUnits="userSpaceOnUse">
<stop stop-color="#FFD06A"/>
<stop offset="1" stop-color="#A37530"/>
</linearGradient>
<linearGradient id="paint58_linear_891_172" x1="87.3579" y1="-17.277" x2="138.791" y2="172.088" gradientUnits="userSpaceOnUse">
<stop stop-color="#FFD06A"/>
<stop offset="1" stop-color="#A37530"/>
</linearGradient>
<linearGradient id="paint59_linear_891_172" x1="88.8145" y1="-17.6728" x2="140.247" y2="171.692" gradientUnits="userSpaceOnUse">
<stop stop-color="#FFD06A"/>
<stop offset="1" stop-color="#A37530"/>
</linearGradient>
<linearGradient id="paint60_linear_891_172" x1="16.7491" y1="1.90082" x2="68.1814" y2="191.265" gradientUnits="userSpaceOnUse">
<stop stop-color="#FFD06A"/>
<stop offset="1" stop-color="#A37530"/>
</linearGradient>
<linearGradient id="paint61_linear_891_172" x1="40.6913" y1="-4.60245" x2="92.1235" y2="184.763" gradientUnits="userSpaceOnUse">
<stop stop-color="#FFD06A"/>
<stop offset="1" stop-color="#A37530"/>
</linearGradient>
</defs>
</svg>
