<svg width="160" height="56" viewBox="0 0 160 56" fill="none" xmlns="http://www.w3.org/2000/svg">
<g clip-path="url(#clip0_1101_127)">
<path fill-rule="evenodd" clip-rule="evenodd" d="M37.2738 14.2306C37.2738 9.18389 40.2344 5.58487 45.3478 5.58487C49.2835 5.58487 51.7392 7.70387 52.4799 10.5636H52.6478V0H55.0364V22.5397H52.8494V17.6285H52.7148C51.9075 20.9589 49.216 22.8758 45.5489 22.8758C40.234 22.8758 37.2738 19.2763 37.2738 14.2306ZM46.1551 20.6898C50.0576 20.6898 52.6478 18.4362 52.6478 14.4997V14.1968C52.6478 10.0929 50.1921 7.80467 46.0876 7.80467C42.2864 7.80467 39.6962 9.41923 39.6962 14.2306C39.6962 19.0419 42.2527 20.6898 46.1551 20.6898ZM32.1295 15.1026L24.9608 15.9159C22.4686 16.1494 21.2637 16.7518 21.2637 18.4686C21.2637 20.1553 22.3701 21.0287 24.8929 21.0287C28.1156 21.0287 30.8038 19.8917 31.7526 17.3917L34.4483 16.6237V22.542H32.2945V18.0617H32.129C31.1502 21.1262 28.221 22.873 24.3584 22.873C21.0903 22.873 18.869 21.3292 18.869 18.6336C18.869 15.9154 21.1282 14.7336 24.2229 14.4021L32.1295 13.5213V12.2489C32.1295 9.01882 30.7141 7.73854 27.0845 7.73854C23.515 7.73854 21.6327 9.01836 21.6327 11.94V12.0755H19.2459V11.94C19.2459 8.44595 22.1371 5.58486 27.25 5.58486C32.295 5.58486 34.4487 8.47601 34.4487 12.143V14.8238L32.1295 15.1026ZM0 20.4535V22.5397H16.8549V20.4207H6.08947L3.09513 20.4877V20.3199L6.08947 17.7293L16.35 8.04049V5.92057H0.50445V8.07378H9.62155L13.1203 8.00674V8.17504L9.62155 11.2701L0 20.4535ZM81.4828 0V22.5397L81.4824 22.5401H83.871V15.0716H89.4218L95.0064 22.5401H97.7987L91.4072 13.8611L97.8329 5.921H95.0068L89.4556 12.8851H83.8715V0H81.4828ZM100.153 22.5397V0H102.542V11.001H102.71C103.248 8.20877 105.401 5.58441 109.64 5.58441C114.282 5.58441 116.603 8.67945 116.603 12.8846V22.5392H114.215V13.1866C114.215 9.38548 112.432 7.77091 108.698 7.77091C104.258 7.77091 102.542 10.5969 102.542 14.7345V22.5392H100.154L100.153 22.5397ZM128.413 5.58717C133.292 5.58717 136.752 8.41035 136.752 13.3548L136.752 13.3544C136.752 13.9587 136.686 14.4645 136.588 14.9042H121.951C122.089 18.6406 124.006 20.8927 128.412 20.8927C132.313 20.8927 134.132 19.4414 134.132 17.0251V16.7888H136.516V17.0251C136.516 20.4859 133.088 22.8758 128.445 22.8758C123.326 22.8758 119.998 19.7996 119.718 14.9058H118.385V13.4233H119.732C119.732 13.4224 119.732 13.4214 119.732 13.4205L121.135 13.4233H121.231V13.4235L123.009 13.427V13.4205H134.5V12.9151C134.5 9.422 132.281 7.57024 128.38 7.57024C125.038 7.57024 123.114 8.9097 122.346 11.2081L120.047 11.5692C121.026 7.97065 124.059 5.58717 128.413 5.58717ZM139.916 3.80154V0H142.305V3.80154H139.916ZM139.916 22.5397V5.921H142.305V22.5401L139.916 22.5397ZM146.308 5.92098V22.5397L146.308 22.5401H148.697V13.5245C148.697 9.79049 150.177 7.67149 153.541 7.67149C156.434 7.67149 157.611 9.05025 157.611 11.8762V13.1551H160V11.5063C160 8.41126 158.318 5.58531 154.483 5.58531C151.017 5.58531 149.134 7.80511 148.629 10.4632H148.461V5.92098H146.308ZM64.2631 15.9159L71.4317 15.1026L73.751 14.8238V12.143C73.751 8.47601 71.5973 5.58486 66.5523 5.58486C61.4394 5.58486 58.5481 8.44595 58.5481 11.94V12.0755H60.9349V11.94C60.9349 9.01836 62.8172 7.73854 66.3868 7.73854C70.0164 7.73854 71.4317 9.01882 71.4317 12.2489V13.5213L63.5251 14.4021C60.4305 14.7336 58.1713 15.9154 58.1713 18.6336C58.1713 21.3292 60.3926 22.873 63.6606 22.873C67.5233 22.873 70.4524 21.1262 71.4313 18.0617H71.5968V22.542H73.7505V16.6237L71.0549 17.3917C70.1061 19.8917 67.4179 21.0287 64.1951 21.0287C61.6724 21.0287 60.5659 20.1553 60.5659 18.4686C60.5659 16.7518 61.7709 16.1494 64.2631 15.9159Z" fill="#E8E4DF"/>
<path fill-rule="evenodd" clip-rule="evenodd" d="M108.753 33.9813C109.158 33.65 109.504 33.4156 109.79 33.2556C109.924 33.2121 110.013 33.1685 110.044 33.125C110.251 33.0282 110.415 32.9792 110.533 32.9646C110.7 32.9646 110.806 33.1652 110.908 33.3595C111.009 33.5508 111.107 33.7359 111.257 33.7173C111.558 33.7173 111.136 32.3621 110.442 32.3621C110.253 32.3621 110.06 32.3849 109.849 32.4543C109.826 32.4482 109.803 32.4429 109.777 32.4384C109.355 32.4005 105.131 33.4926 101.933 35.2246L100.183 36.2034C100.282 35.4902 100.39 34.757 100.514 33.9157L100.514 33.9155L100.514 33.9151L100.514 33.915L100.514 33.915C100.77 32.1806 101.094 29.9871 101.541 26.5645C102.808 16.9257 103.683 15.7208 104.196 15.6833C104.229 15.6783 104.26 15.6753 104.288 15.6725C104.473 15.6546 104.572 15.645 104.467 15.1562C104.347 14.5538 103.985 14.2528 103.593 14.441C102.899 14.742 101.903 16.9631 100.576 26.6774L100.366 28.2101L100.366 28.2102C99.8007 32.3479 99.4641 34.8107 99.2482 36.7305C97.1966 37.9733 95.9898 38.9521 95.9898 39.4418C95.9898 39.7036 96.3988 39.9109 97.1252 40.2791L97.1253 40.2791L97.1255 40.2792C97.4431 40.4402 97.8214 40.6319 98.2527 40.8723L98.8561 41.2492C98.8561 41.4859 98.8317 41.7235 98.8046 41.988L98.7955 42.0772L98.7842 42.2229C98.4486 46.5266 97.7856 55.0294 99.158 55.0294C100.516 55.0294 102.386 50.1718 102.386 47.3482C102.386 44.599 100.968 42.3399 99.6412 41.0975C99.7915 39.4413 99.9427 38.1985 100.093 37.0315C100.878 36.5798 101.813 36.0901 102.899 35.563C105.482 34.3612 107.334 33.8133 108.26 33.5887C107.192 34.6416 106.851 35.5823 106.851 36.2399C106.851 36.466 107.153 36.8424 107.545 36.8424C107.877 36.8424 108.843 36.3153 109.718 35.7128C110.684 35.0355 110.864 34.9601 110.955 35.0729C111.016 35.1493 110.951 35.4427 110.867 35.8213C110.661 36.7523 110.34 38.1985 111.498 38.1985C112.937 38.1985 116.518 35.4913 119.098 31.0248L119.102 31.0453C119.233 31.7211 119.467 32.5123 119.72 33.3651L119.72 33.3652C119.876 33.8904 120.039 34.439 120.188 34.9985C119.675 35.5635 119.133 36.2034 118.559 36.9187C114.516 41.9644 114.637 46.4447 117.111 46.4447C118.861 46.4447 121.546 44.0349 121.546 40.0442C121.546 38.3122 121.244 36.6556 120.882 35.1492C122.24 33.6433 123.507 32.4384 124.503 31.9487C124.522 31.9366 124.543 31.9241 124.564 31.9112L124.564 31.9111C124.742 31.8039 124.959 31.6731 124.744 31.5724C124.623 31.5345 124.261 31.6098 124.171 31.6852C123.024 32.3251 121.908 33.2286 120.7 34.4335C120.48 33.608 120.245 32.8541 120.045 32.2109C119.834 31.5337 119.662 30.9792 119.584 30.5931L119.585 30.5936C119.556 30.4391 119.544 30.2827 119.55 30.1253C119.553 30.1012 119.554 30.0797 119.553 30.0606C119.606 29.2796 120.095 28.4814 121.003 27.8074C121.305 27.6192 121.335 27.1296 120.641 27.2424C119.852 27.3411 118.926 28.5831 119 30.2713C116.316 34.4545 113.251 37.4069 111.559 37.4069C111.001 37.4069 111.359 36.1481 111.612 35.2594L111.612 35.2594L111.613 35.2593C111.715 34.8994 111.8 34.6002 111.8 34.47C111.8 34.169 111.528 34.0936 111.408 34.0936C111.287 34.0936 110.292 34.6587 109.145 35.3739L109.087 35.4076C108.276 35.8773 107.781 36.1646 107.516 36.1646C107.425 36.1646 107.395 36.0892 107.395 36.0517C107.395 35.7128 107.999 34.6591 108.753 33.9813ZM99.1585 37.5207C97.7404 38.4246 96.9562 39.1024 96.9562 39.2152C96.9562 39.2985 97.1209 39.3817 97.401 39.5232C97.7552 39.7021 98.2938 39.9743 98.9171 40.4576C98.9657 39.6423 99.0334 38.8992 99.105 38.1122L99.105 38.1122L99.105 38.1121L99.105 38.1121L99.105 38.112L99.105 38.112L99.105 38.112L99.105 38.112L99.105 38.1119C99.1227 37.9181 99.1406 37.7216 99.1585 37.5207ZM99.5205 42.9049L99.581 41.8141C100.727 42.8678 101.843 44.5997 101.843 47.1974C101.843 50.8496 99.8821 54.0501 99.3998 54.0501C98.9472 54.0501 99.0378 49.6068 99.5205 42.9049ZM119.102 37.295L120.399 35.7133C120.731 36.994 121.002 38.3118 121.002 39.5541C121.002 43.0186 118.74 45.8043 116.809 45.8043C115.511 45.8043 115.451 41.8886 119.102 37.295ZM138.185 32.9569C135.669 34.7826 132.294 37.1064 130.295 37.1064C129.804 37.1064 129.807 36.7365 129.811 35.9415V35.941V35.9404C129.812 35.8568 129.813 35.7685 129.813 35.6754C129.813 34.8847 129.752 34.2823 129.179 34.2823C128.624 34.3136 127.836 34.9778 126.587 36.0316L126.587 36.0316L126.587 36.0316L126.587 36.0316C126.343 36.2375 126.081 36.4583 125.8 36.6921C126.011 34.6591 126.584 30.1409 127.429 25.4341C127.552 24.7127 127.686 23.9747 127.819 23.2582C128.413 20.3989 128.834 19.9025 129.145 19.8792C129.175 19.8745 129.204 19.8716 129.23 19.8689C129.403 19.8518 129.495 19.8427 129.398 19.378C129.285 18.8056 128.948 18.5194 128.582 18.6984C128.092 18.9154 127.477 20.1205 126.753 24.8386C126.747 24.8741 126.741 24.9097 126.735 24.9454C125.89 29.8399 125.347 34.2453 125.106 36.5044C125.015 37.295 125.166 37.7093 125.347 37.7093C125.527 37.7093 125.767 37.4856 126.007 37.2611L126.011 37.2576C127.158 36.3162 128.726 35.1867 129.028 35.1867C129.159 35.1867 129.148 35.4029 129.132 35.7219L129.132 35.722C129.125 35.8442 129.118 35.9816 129.118 36.1276C129.118 37.0689 129.541 37.8221 130.416 37.8221C132.397 37.7925 134.247 36.4654 136.578 34.7934C137.01 34.4835 137.458 34.1618 137.927 33.8343C137.799 34.4381 137.718 35.1761 137.718 35.6379C137.718 36.2404 137.959 36.9182 138.744 36.9182C139.226 36.9182 139.92 36.73 142.666 35.563C144.881 34.6254 146.272 33.8719 147.083 33.4203C146.956 33.7213 146.874 34.0544 146.86 34.3951C146.8 35.4118 147.252 36.0518 147.946 36.0143C148.972 36.0143 149.727 34.6212 149.696 33.2656C149.696 33.1153 149.666 32.9646 149.636 32.8517C150.288 32.722 151.604 32.0739 152.855 31.4573L152.855 31.4573C154.151 30.8193 155.377 30.2149 155.73 30.2533C155.989 30.2894 155.974 30.4626 155.945 30.772L155.941 30.8183C155.923 31.1745 155.568 32.3341 155.274 33.2923L155.274 33.2924C155.071 33.9546 154.898 34.5206 154.886 34.6591C154.855 34.9976 155.127 35.864 155.278 35.864C155.529 35.9228 156.117 35.256 156.677 34.6197C157.192 34.0347 157.685 33.4755 157.873 33.5296C157.975 33.5553 157.924 34.0149 157.863 34.5784V34.5785L157.863 34.5786C157.833 34.8449 157.801 35.1344 157.782 35.4123C157.721 36.3158 157.903 37.2571 158.325 37.4453C158.777 37.634 159.23 36.9936 159.351 36.6547C159.471 36.3532 159.381 36.165 159.2 36.3911C158.989 36.6542 158.717 36.767 158.566 36.6168C158.416 36.5039 158.385 36.0143 158.416 35.3744C158.429 35.0915 158.453 34.7871 158.475 34.4852V34.4851C158.553 33.4613 158.628 32.4664 158.325 32.4375C157.925 32.3875 156.875 33.4131 156.196 34.0773C155.85 34.415 155.6 34.6592 155.58 34.6212C155.538 34.5685 155.711 33.9782 155.918 33.2747C156.155 32.466 156.436 31.5075 156.485 31.0444L156.487 31.006C156.517 30.4832 156.557 29.8002 155.821 29.7266C155.259 29.6438 153.844 30.3078 152.437 30.9683L152.437 30.9683C151.277 31.5127 150.123 32.0546 149.455 32.1739C149.184 31.6094 148.731 31.4207 148.489 31.7222C148.188 32.2118 148.369 32.8143 149.274 32.8517C149.274 32.9041 149.28 32.9647 149.287 33.0295C149.295 33.1044 149.304 33.185 149.304 33.2656C149.333 34.2823 148.761 35.299 148.037 35.3744C147.644 35.4123 147.524 34.8848 147.493 34.5463L147.494 34.5458C147.524 33.9813 147.766 33.2656 148.248 32.8892C148.459 32.7006 147.826 32.3996 147.705 32.5124C147.682 32.5335 147.659 32.5555 147.636 32.5782C147.402 32.6782 146.972 32.8879 146.391 33.1705L146.391 33.1706L146.391 33.1706C145.417 33.6445 144.022 34.3235 142.425 35.0355C139.86 36.165 139.015 36.2778 138.623 36.2778C138.472 36.2778 138.321 36.0518 138.351 35.6C138.412 34.998 138.502 34.2823 138.955 33.1153C139.136 32.701 138.955 32.4754 138.804 32.5128C138.482 32.5836 138.303 32.7286 138.185 32.9569ZM139.679 28.2586C139.498 28.2212 139.256 28.6355 139.196 28.8611C139.135 29.1246 139.256 29.765 139.407 29.8404C139.588 29.8778 139.981 29.4636 140.071 29.1246C140.131 28.7857 139.95 28.334 139.679 28.2586Z" fill="#E8E4DF"/>
</g>
<defs>
<clipPath id="clip0_1101_127">
<rect width="160" height="55.0289" fill="white"/>
</clipPath>
</defs>
</svg>
